<svg width="388" height="75" viewBox="0 0 388 75" fill="none" xmlns="http://www.w3.org/2000/svg">
<rect width="387.312" height="74.6052" rx="7.93673" fill="#9041F0"/>
<path d="M75.3211 36.6151H80.3994V43.4419C79.6863 43.6776 78.9484 43.8605 78.1858 43.9907C77.4231 44.1209 76.5674 44.186 75.6187 44.186C74.236 44.186 73.0641 43.9132 72.103 43.3675C71.1481 42.8157 70.4227 42.0189 69.9266 40.9772C69.4306 39.9293 69.1825 38.6675 69.1825 37.1918C69.1825 35.7718 69.4585 34.541 70.0103 33.4993C70.5622 32.4514 71.3651 31.6423 72.4192 31.0718C73.4733 30.4952 74.7507 30.2068 76.2512 30.2068C76.9891 30.2068 77.7021 30.2812 78.3904 30.4301C79.0849 30.5727 79.7204 30.7711 80.2971 31.0253L79.5158 32.8669C79.057 32.6499 78.5423 32.4669 77.9719 32.3181C77.4014 32.1693 76.8092 32.0949 76.1954 32.0949C75.2219 32.0949 74.3817 32.3057 73.6749 32.7274C72.9742 33.149 72.4347 33.7443 72.0565 34.5131C71.6783 35.2758 71.4892 36.178 71.4892 37.2197C71.4892 38.2304 71.6411 39.1171 71.9449 39.8797C72.2487 40.6424 72.7231 41.2376 73.3679 41.6655C74.019 42.0871 74.8592 42.2979 75.8885 42.2979C76.4031 42.2979 76.8403 42.27 77.1999 42.2142C77.5595 42.1584 77.8912 42.0964 78.1951 42.0282V38.5218H75.3211V36.6151ZM91.3558 44H83.6547V30.4022H91.3558V32.2809H85.8869V35.9734H91.0117V37.8428H85.8869V42.1119H91.3558V44ZM105.642 44H102.898L96.2387 33.1459H96.155C96.1798 33.5117 96.2015 33.8993 96.2201 34.3085C96.2449 34.7177 96.2635 35.1394 96.2759 35.5734C96.2945 36.0075 96.31 36.4477 96.3224 36.8941V44H94.2949V30.4022H97.02L103.67 41.1818H103.735C103.723 40.8656 103.707 40.5029 103.689 40.0936C103.67 39.6844 103.652 39.2628 103.633 38.8287C103.621 38.3885 103.611 37.9637 103.605 37.5545V30.4022H105.642V44ZM116.915 44H109.213V30.4022H116.915V32.2809H111.446V35.9734H116.57V37.8428H111.446V42.1119H116.915V44ZM123.676 30.4022C124.848 30.4022 125.815 30.5448 126.578 30.83C127.347 31.1152 127.917 31.5493 128.289 32.1321C128.668 32.715 128.857 33.4559 128.857 34.355C128.857 35.0247 128.733 35.5951 128.485 36.0664C128.237 36.5376 127.911 36.9283 127.508 37.2383C127.105 37.5483 126.674 37.7963 126.215 37.9823L130.075 44H127.555L124.272 38.5497H122.086V44H119.854V30.4022H123.676ZM123.527 32.2623H122.086V36.7081H123.63C124.665 36.7081 125.416 36.5159 125.881 36.1315C126.352 35.747 126.587 35.1797 126.587 34.4294C126.587 33.6419 126.336 33.0839 125.834 32.7553C125.338 32.4266 124.569 32.2623 123.527 32.2623ZM140.446 44L139.116 40.2239H133.916L132.586 44H130.233L135.293 30.3463H137.767L142.817 44H140.446ZM138.539 38.3079L137.246 34.5875C137.197 34.4263 137.125 34.2 137.032 33.9086C136.939 33.6109 136.846 33.3102 136.753 33.0064C136.66 32.6964 136.583 32.4359 136.521 32.2251C136.459 32.4793 136.381 32.7646 136.288 33.0808C136.201 33.3908 136.115 33.6823 136.028 33.9551C135.947 34.2279 135.885 34.4387 135.842 34.5875L134.54 38.3079H138.539ZM148.435 30.4022C149.607 30.4022 150.574 30.5448 151.337 30.83C152.106 31.1152 152.676 31.5493 153.048 32.1321C153.427 32.715 153.616 33.4559 153.616 34.355C153.616 35.0247 153.492 35.5951 153.244 36.0664C152.996 36.5376 152.67 36.9283 152.267 37.2383C151.864 37.5483 151.433 37.7963 150.974 37.9823L154.834 44H152.314L149.03 38.5497H146.845V44H144.612V30.4022H148.435ZM148.286 32.2623H146.845V36.7081H148.389C149.424 36.7081 150.174 36.5159 150.639 36.1315C151.111 35.747 151.346 35.1797 151.346 34.4294C151.346 33.6419 151.095 33.0839 150.593 32.7553C150.097 32.4266 149.328 32.2623 148.286 32.2623ZM161.726 44V30.4022H163.958V44H161.726ZM178.895 44H176.152L169.492 33.1459H169.409C169.433 33.5117 169.455 33.8993 169.474 34.3085C169.498 34.7177 169.517 35.1394 169.529 35.5734C169.548 36.0075 169.564 36.4477 169.576 36.8941V44H167.548V30.4022H170.274L176.924 41.1818H176.989C176.976 40.8656 176.961 40.5029 176.942 40.0936C176.924 39.6844 176.905 39.2628 176.886 38.8287C176.874 38.3885 176.865 37.9637 176.859 37.5545V30.4022H178.895V44ZM187.182 44H184.941V32.2995H180.96V30.4022H191.154V32.2995H187.182V44ZM200.938 44H193.237V30.4022H200.938V32.2809H195.47V35.9734H200.594V37.8428H195.47V42.1119H200.938V44ZM207.7 30.4022C208.872 30.4022 209.839 30.5448 210.602 30.83C211.371 31.1152 211.941 31.5493 212.313 32.1321C212.692 32.715 212.881 33.4559 212.881 34.355C212.881 35.0247 212.757 35.5951 212.509 36.0664C212.261 36.5376 211.935 36.9283 211.532 37.2383C211.129 37.5483 210.698 37.7963 210.239 37.9823L214.099 44H211.579L208.295 38.5497H206.11V44H203.877V30.4022H207.7ZM207.551 32.2623H206.11V36.7081H207.654C208.689 36.7081 209.439 36.5159 209.904 36.1315C210.376 35.747 210.611 35.1797 210.611 34.4294C210.611 33.6419 210.36 33.0839 209.858 32.7553C209.362 32.4266 208.593 32.2623 207.551 32.2623ZM219.996 30.4022C221.751 30.4022 223.031 30.7618 223.837 31.4811C224.643 32.2003 225.046 33.2079 225.046 34.5038C225.046 35.0929 224.953 35.654 224.767 36.1873C224.587 36.7143 224.29 37.1825 223.874 37.5917C223.459 37.9947 222.91 38.3141 222.228 38.5497C221.552 38.7853 220.718 38.9031 219.726 38.9031H218.275V44H216.043V30.4022H219.996ZM219.847 32.253H218.275V37.043H219.494C220.194 37.043 220.79 36.9624 221.279 36.8011C221.769 36.6337 222.141 36.3702 222.396 36.0106C222.65 35.6509 222.777 35.1766 222.777 34.5875C222.777 33.8001 222.538 33.2141 222.061 32.8297C221.589 32.4452 220.852 32.253 219.847 32.253ZM231.585 30.4022C232.757 30.4022 233.724 30.5448 234.487 30.83C235.255 31.1152 235.826 31.5493 236.198 32.1321C236.576 32.715 236.765 33.4559 236.765 34.355C236.765 35.0247 236.641 35.5951 236.393 36.0664C236.145 36.5376 235.82 36.9283 235.417 37.2383C235.014 37.5483 234.583 37.7963 234.124 37.9823L237.984 44H235.463L232.18 38.5497H229.994V44H227.762V30.4022H231.585ZM231.436 32.2623H229.994V36.7081H231.538C232.574 36.7081 233.324 36.5159 233.789 36.1315C234.26 35.747 234.496 35.1797 234.496 34.4294C234.496 33.6419 234.245 33.0839 233.743 32.7553C233.246 32.4266 232.478 32.2623 231.436 32.2623ZM247.629 44H239.928V30.4022H247.629V32.2809H242.16V35.9734H247.285V37.8428H242.16V42.1119H247.629V44ZM255.283 44H253.042V32.2995H249.061V30.4022H259.255V32.2995H255.283V44ZM269.765 44L268.435 40.2239H263.236L261.906 44H259.552L264.612 30.3463H267.086L272.136 44H269.765ZM267.858 38.3079L266.565 34.5875C266.516 34.4263 266.444 34.2 266.351 33.9086C266.258 33.6109 266.165 33.3102 266.072 33.0064C265.979 32.6964 265.902 32.4359 265.84 32.2251C265.778 32.4793 265.7 32.7646 265.607 33.0808C265.52 33.3908 265.434 33.6823 265.347 33.9551C265.266 34.2279 265.204 34.4387 265.161 34.5875L263.859 38.3079H267.858ZM279.726 32.1042C279.075 32.1042 278.492 32.222 277.977 32.4576C277.469 32.6933 277.038 33.0343 276.685 33.4807C276.331 33.921 276.061 34.4573 275.875 35.0898C275.689 35.716 275.596 36.4229 275.596 37.2104C275.596 38.2645 275.745 39.1729 276.043 39.9355C276.34 40.692 276.793 41.2749 277.401 41.6841C278.008 42.0871 278.777 42.2886 279.707 42.2886C280.284 42.2886 280.845 42.2328 281.391 42.1212C281.936 42.0096 282.501 41.8577 283.084 41.6655V43.5629C282.532 43.7799 281.974 43.938 281.409 44.0372C280.845 44.1364 280.194 44.186 279.456 44.186C278.067 44.186 276.914 43.8977 275.996 43.321C275.085 42.7444 274.403 41.9321 273.95 40.8842C273.504 39.8363 273.28 38.6086 273.28 37.2011C273.28 36.1718 273.423 35.2293 273.708 34.3736C273.994 33.5179 274.409 32.7801 274.955 32.16C275.5 31.5338 276.173 31.0532 276.973 30.7184C277.779 30.3774 278.7 30.2068 279.735 30.2068C280.417 30.2068 281.087 30.2843 281.744 30.4394C282.408 30.5882 283.022 30.8021 283.586 31.0811L282.805 32.9227C282.333 32.6995 281.84 32.5072 281.326 32.346C280.811 32.1848 280.278 32.1042 279.726 32.1042ZM286.004 44V30.4022H288.236V44H286.004ZM303.899 37.1825C303.899 38.2304 303.766 39.1853 303.499 40.0471C303.239 40.9028 302.845 41.6407 302.318 42.2607C301.791 42.8746 301.13 43.3489 300.337 43.6838C299.543 44.0186 298.613 44.186 297.546 44.186C296.461 44.186 295.519 44.0186 294.719 43.6838C293.925 43.3489 293.265 42.8715 292.738 42.2514C292.217 41.6314 291.826 40.8904 291.566 40.0285C291.306 39.1667 291.175 38.2118 291.175 37.1639C291.175 35.7625 291.405 34.541 291.864 33.4993C292.329 32.4514 293.032 31.6392 293.975 31.0625C294.924 30.4797 296.12 30.1882 297.565 30.1882C298.979 30.1882 300.154 30.4766 301.09 31.0532C302.026 31.6299 302.727 32.4421 303.192 33.49C303.663 34.5317 303.899 35.7625 303.899 37.1825ZM293.519 37.1825C293.519 38.2304 293.662 39.1388 293.947 39.9076C294.232 40.6703 294.669 41.2593 295.258 41.6748C295.854 42.084 296.616 42.2886 297.546 42.2886C298.483 42.2886 299.245 42.084 299.834 41.6748C300.423 41.2593 300.858 40.6703 301.137 39.9076C301.416 39.1388 301.555 38.2304 301.555 37.1825C301.555 35.5889 301.236 34.3426 300.597 33.4435C299.965 32.5382 298.954 32.0856 297.565 32.0856C296.635 32.0856 295.869 32.2902 295.268 32.6995C294.672 33.1087 294.232 33.6947 293.947 34.4573C293.662 35.2138 293.519 36.1222 293.519 37.1825ZM300.718 26.0959V26.2819C300.569 26.4617 300.368 26.6787 300.113 26.9329C299.859 27.181 299.583 27.4445 299.286 27.7235C298.988 27.9963 298.694 28.2599 298.402 28.5141C298.111 28.7621 297.847 28.9729 297.612 29.1465H296.151V28.9047C296.356 28.6691 296.582 28.387 296.83 28.0583C297.084 27.7297 297.332 27.3918 297.574 27.0445C297.822 26.6973 298.03 26.3811 298.197 26.0959H300.718ZM318.166 44H315.423L308.763 33.1459H308.68C308.704 33.5117 308.726 33.8993 308.745 34.3085C308.769 34.7177 308.788 35.1394 308.8 35.5734C308.819 36.0075 308.835 36.4477 308.847 36.8941V44H306.819V30.4022H309.544L316.195 41.1818H316.26C316.247 40.8656 316.232 40.5029 316.213 40.0936C316.195 39.6844 316.176 39.2628 316.157 38.8287C316.145 38.3885 316.136 37.9637 316.129 37.5545V30.4022H318.166V44Z" fill="white"/>
</svg>
