<svg width="1557" height="449" viewBox="0 0 1557 449" fill="none" xmlns="http://www.w3.org/2000/svg">
<g filter="url(#filter0_d_6_558)">
<path fill-rule="evenodd" clip-rule="evenodd" d="M12.0004 7.99976H1542C1543.66 7.99976 1545 9.34308 1545 10.9999V433C1545 434.657 1543.66 436 1542 436H12.0004C10.3424 436 8.99976 434.657 8.99976 433V10.9999C8.99976 9.34308 10.3424 7.99976 12.0004 7.99976Z" fill="white"/>
</g>
<path d="M853.697 388.493C853.697 389.22 853.557 389.861 853.275 390.418C853 390.969 852.61 391.399 852.106 391.71C851.608 392.021 851.02 392.176 850.34 392.176C850.006 392.176 849.684 392.155 849.373 392.114C849.062 392.079 848.767 392.021 848.485 391.938C848.21 391.856 847.946 391.754 847.694 391.631V390.181C848.093 390.403 848.523 390.573 848.986 390.69C849.455 390.808 849.889 390.866 850.287 390.866C850.715 390.866 851.075 390.767 851.368 390.567C851.661 390.362 851.884 390.09 852.036 389.75C852.194 389.41 852.273 389.035 852.273 388.625C852.273 388.191 852.209 387.828 852.08 387.535C851.951 387.236 851.74 386.967 851.447 386.727C851.154 386.486 850.759 386.237 850.261 385.979C849.886 385.774 849.546 385.563 849.241 385.347C848.937 385.13 848.676 384.887 848.459 384.617C848.242 384.342 848.075 384.02 847.958 383.65C847.841 383.281 847.782 382.842 847.782 382.332C847.771 381.658 847.902 381.069 848.178 380.565C848.459 380.056 848.846 379.66 849.338 379.379C849.836 379.098 850.404 378.96 851.043 378.966C851.529 378.966 851.992 379.027 852.432 379.15C852.877 379.268 853.261 379.411 853.583 379.581L853.126 380.864C852.769 380.671 852.414 380.527 852.062 380.434C851.717 380.334 851.386 380.284 851.069 380.284C850.677 380.284 850.34 380.369 850.059 380.539C849.783 380.709 849.569 380.943 849.417 381.242C849.271 381.535 849.197 381.878 849.197 382.271C849.197 382.722 849.262 383.094 849.391 383.387C849.525 383.68 849.739 383.94 850.032 384.169C850.331 384.397 850.724 384.644 851.21 384.907C851.767 385.2 852.229 385.517 852.599 385.856C852.968 386.19 853.243 386.571 853.425 386.999C853.606 387.427 853.697 387.925 853.697 388.493ZM862.513 379.15V387.983C862.513 388.962 862.381 389.762 862.117 390.383C861.854 390.998 861.467 391.452 860.957 391.745C860.453 392.032 859.829 392.176 859.085 392.176C857.954 392.176 857.093 391.836 856.501 391.156C855.909 390.477 855.613 389.422 855.613 387.992V379.15H857.011V388.001C857.011 389.032 857.189 389.773 857.547 390.225C857.91 390.676 858.423 390.901 859.085 390.901C859.524 390.901 859.894 390.805 860.192 390.611C860.491 390.418 860.717 390.107 860.869 389.68C861.021 389.252 861.098 388.687 861.098 387.983V379.15H862.513ZM867.804 392H866.406V380.416H863.901V379.15H870.317V380.416H867.804V392ZM871.829 392V379.15H873.227V392H871.829ZM875.854 392V379.15H877.252V390.726H880.838V392H875.854ZM887.535 392H882.481V379.15H887.535V380.398H883.879V384.661H887.315V385.918H883.879V390.726H887.535V392ZM894.408 392H888.81V390.91L892.791 380.416H888.897V379.15H894.294V380.258L890.304 390.726H894.408V392ZM901.255 392L900.288 387.869H897.238L896.271 392H894.777L897.88 379.15H899.576L902.74 392H901.255ZM900.024 386.577L899.04 382.218C898.999 382.001 898.958 381.79 898.917 381.585C898.882 381.374 898.847 381.172 898.812 380.979C898.782 380.779 898.753 380.586 898.724 380.398C898.706 380.586 898.683 380.779 898.653 380.979C898.624 381.178 898.589 381.38 898.548 381.585C898.507 381.784 898.463 381.989 898.416 382.2L897.458 386.577H900.024Z" fill="#464A53"/>
<rect x="39.5" y="235.5" width="706" height="41.6052" rx="7.43673" fill="white" stroke="#BBBBBB"/>
<rect x="39.5" y="342.5" width="706" height="41.6052" rx="7.43673" fill="white" stroke="#BBBBBB"/>
<path d="M53.0068 52.9971C53.0068 54.766 52.6667 56.2448 51.9863 57.4336C51.3132 58.6152 50.3356 59.5068 49.0537 60.1084C47.7718 60.7028 46.2285 61 44.4238 61H39.9766V45.2949H44.9072C46.5544 45.2949 47.9831 45.5885 49.1934 46.1758C50.4036 46.7559 51.3418 47.6188 52.0078 48.7646C52.6738 49.9033 53.0068 51.3141 53.0068 52.9971ZM49.5479 53.083C49.5479 51.9229 49.376 50.9704 49.0322 50.2256C48.6956 49.4736 48.1943 48.9186 47.5283 48.5605C46.8695 48.2025 46.0531 48.0234 45.0791 48.0234H43.3066V58.25H44.7354C46.361 58.25 47.5677 57.8167 48.3555 56.9502C49.1504 56.0837 49.5479 54.7946 49.5479 53.083ZM65.876 61L64.7373 57.2617H59.0117L57.873 61H54.2852L59.8281 45.2305H63.8994L69.4639 61H65.876ZM63.9424 54.4688L62.8037 50.8164C62.7321 50.5729 62.6354 50.2614 62.5137 49.8818C62.3991 49.4951 62.2809 49.1048 62.1592 48.7109C62.0446 48.3099 61.9515 47.9626 61.8799 47.6689C61.8083 47.9626 61.708 48.3278 61.5791 48.7646C61.4574 49.1943 61.3392 49.6025 61.2246 49.9893C61.11 50.376 61.0277 50.6517 60.9775 50.8164L59.8496 54.4688H63.9424ZM77.5098 61H74.1797V48.0664H69.915V45.2949H81.7744V48.0664H77.5098V61ZM98.4463 53.126C98.4463 54.3363 98.2959 55.4391 97.9951 56.4346C97.6943 57.4229 97.236 58.2751 96.6201 58.9912C96.0114 59.7074 95.238 60.2588 94.2998 60.6455C93.3617 61.0251 92.2516 61.2148 90.9697 61.2148C89.6878 61.2148 88.5778 61.0251 87.6396 60.6455C86.7015 60.2588 85.9245 59.7074 85.3086 58.9912C84.6999 58.2751 84.2451 57.4193 83.9443 56.4238C83.6436 55.4284 83.4932 54.3219 83.4932 53.1045C83.4932 51.4788 83.7581 50.0645 84.2881 48.8613C84.8252 47.651 85.6488 46.7129 86.7588 46.0469C87.8688 45.3809 89.2796 45.0479 90.9912 45.0479C92.6956 45.0479 94.0957 45.3809 95.1914 46.0469C96.2943 46.7129 97.1107 47.651 97.6406 48.8613C98.1777 50.0716 98.4463 51.4932 98.4463 53.126ZM86.9844 53.126C86.9844 54.2217 87.1204 55.167 87.3926 55.9619C87.6719 56.7497 88.1051 57.3584 88.6924 57.7881C89.2796 58.2106 90.0387 58.4219 90.9697 58.4219C91.915 58.4219 92.6813 58.2106 93.2686 57.7881C93.8558 57.3584 94.2819 56.7497 94.5469 55.9619C94.819 55.167 94.9551 54.2217 94.9551 53.126C94.9551 51.4788 94.6471 50.1826 94.0312 49.2373C93.4154 48.292 92.402 47.8193 90.9912 47.8193C90.0531 47.8193 89.2868 48.0342 88.6924 48.4639C88.1051 48.8864 87.6719 49.4951 87.3926 50.29C87.1204 51.0778 86.9844 52.0231 86.9844 53.126ZM110.972 56.6387C110.972 57.5697 110.746 58.3789 110.295 59.0664C109.844 59.7539 109.185 60.2839 108.318 60.6562C107.459 61.0286 106.413 61.2148 105.182 61.2148C104.637 61.2148 104.104 61.179 103.581 61.1074C103.065 61.0358 102.568 60.932 102.088 60.7959C101.615 60.6527 101.164 60.4772 100.734 60.2695V57.1758C101.479 57.5052 102.253 57.8024 103.055 58.0674C103.857 58.3324 104.652 58.4648 105.439 58.4648C105.984 58.4648 106.421 58.3932 106.75 58.25C107.087 58.1068 107.33 57.9098 107.48 57.6592C107.631 57.4085 107.706 57.1221 107.706 56.7998C107.706 56.4059 107.574 56.0693 107.309 55.79C107.044 55.5107 106.678 55.2493 106.213 55.0059C105.755 54.7624 105.235 54.501 104.655 54.2217C104.29 54.0498 103.893 53.8421 103.463 53.5986C103.033 53.348 102.625 53.0436 102.238 52.6855C101.852 52.3275 101.533 51.8942 101.282 51.3857C101.039 50.8701 100.917 50.2542 100.917 49.5381C100.917 48.5999 101.132 47.7979 101.562 47.1318C101.991 46.4658 102.604 45.9574 103.398 45.6064C104.201 45.2484 105.146 45.0693 106.234 45.0693C107.051 45.0693 107.828 45.166 108.565 45.3594C109.31 45.5456 110.087 45.8177 110.896 46.1758L109.822 48.7646C109.099 48.471 108.451 48.2454 107.878 48.0879C107.305 47.9232 106.721 47.8408 106.127 47.8408C105.712 47.8408 105.357 47.9089 105.063 48.0449C104.77 48.1738 104.548 48.36 104.397 48.6035C104.247 48.8398 104.172 49.1156 104.172 49.4307C104.172 49.8031 104.279 50.1182 104.494 50.376C104.716 50.6266 105.046 50.8701 105.482 51.1064C105.926 51.3428 106.478 51.6185 107.137 51.9336C107.939 52.3132 108.623 52.7106 109.188 53.126C109.761 53.5342 110.202 54.0176 110.51 54.5762C110.818 55.1276 110.972 55.8151 110.972 56.6387ZM132.563 52.9971C132.563 54.766 132.223 56.2448 131.543 57.4336C130.87 58.6152 129.892 59.5068 128.61 60.1084C127.328 60.7028 125.785 61 123.98 61H119.533V45.2949H124.464C126.111 45.2949 127.54 45.5885 128.75 46.1758C129.96 46.7559 130.898 47.6188 131.564 48.7646C132.23 49.9033 132.563 51.3141 132.563 52.9971ZM129.104 53.083C129.104 51.9229 128.933 50.9704 128.589 50.2256C128.252 49.4736 127.751 48.9186 127.085 48.5605C126.426 48.2025 125.61 48.0234 124.636 48.0234H122.863V58.25H124.292C125.918 58.25 127.124 57.8167 127.912 56.9502C128.707 56.0837 129.104 54.7946 129.104 53.083ZM144.863 61H135.818V45.2949H144.863V48.0234H139.148V51.4717H144.466V54.2002H139.148V58.25H144.863V61ZM148.15 61V45.2949H151.48V58.25H157.851V61H148.15ZM171.321 45.2949C173.348 45.2949 174.827 45.7318 175.758 46.6055C176.689 47.472 177.154 48.668 177.154 50.1934C177.154 50.8809 177.05 51.5397 176.843 52.1699C176.635 52.793 176.295 53.348 175.822 53.835C175.357 54.3219 174.734 54.7087 173.953 54.9951C173.173 55.2744 172.209 55.4141 171.063 55.4141H169.635V61H166.305V45.2949H171.321ZM171.149 48.0234H169.635V52.6855H170.73C171.354 52.6855 171.894 52.6032 172.353 52.4385C172.811 52.2738 173.165 52.016 173.416 51.665C173.667 51.3141 173.792 50.863 173.792 50.3115C173.792 49.5381 173.577 48.9652 173.147 48.5928C172.718 48.2132 172.052 48.0234 171.149 48.0234ZM189.733 61L188.595 57.2617H182.869L181.73 61H178.143L183.686 45.2305H187.757L193.321 61H189.733ZM187.8 54.4688L186.661 50.8164C186.59 50.5729 186.493 50.2614 186.371 49.8818C186.257 49.4951 186.138 49.1048 186.017 48.7109C185.902 48.3099 185.809 47.9626 185.737 47.6689C185.666 47.9626 185.565 48.3278 185.437 48.7646C185.315 49.1943 185.197 49.6025 185.082 49.9893C184.967 50.376 184.885 50.6517 184.835 50.8164L183.707 54.4688H187.8ZM201.979 47.8408C201.342 47.8408 200.776 47.9661 200.282 48.2168C199.795 48.4603 199.383 48.8148 199.047 49.2803C198.717 49.7458 198.467 50.3079 198.295 50.9668C198.123 51.6257 198.037 52.3669 198.037 53.1904C198.037 54.3005 198.173 55.2493 198.445 56.0371C198.725 56.8177 199.154 57.4157 199.734 57.8311C200.314 58.2393 201.063 58.4434 201.979 58.4434C202.617 58.4434 203.254 58.3717 203.892 58.2285C204.536 58.0853 205.234 57.8812 205.986 57.6162V60.4092C205.292 60.6956 204.608 60.8997 203.935 61.0215C203.261 61.1504 202.506 61.2148 201.668 61.2148C200.049 61.2148 198.717 60.8818 197.672 60.2158C196.633 59.5426 195.864 58.6045 195.362 57.4014C194.861 56.1911 194.61 54.7803 194.61 53.1689C194.61 51.9801 194.771 50.8916 195.094 49.9033C195.416 48.915 195.889 48.0592 196.512 47.3359C197.135 46.6126 197.905 46.054 198.821 45.6602C199.738 45.2663 200.791 45.0693 201.979 45.0693C202.76 45.0693 203.541 45.1696 204.321 45.3701C205.109 45.5635 205.861 45.832 206.577 46.1758L205.503 48.8828C204.916 48.6035 204.325 48.36 203.73 48.1523C203.136 47.9447 202.552 47.8408 201.979 47.8408ZM209.338 61V45.2949H212.668V61H209.338ZM225.666 61H216.621V45.2949H225.666V48.0234H219.951V51.4717H225.269V54.2002H219.951V58.25H225.666V61ZM242.886 61H238.653L231.821 49.1191H231.725C231.753 49.6133 231.778 50.111 231.8 50.6123C231.821 51.1136 231.843 51.6149 231.864 52.1162C231.886 52.6104 231.907 53.1081 231.929 53.6094V61H228.953V45.2949H233.153L239.975 57.0576H240.05C240.035 56.5706 240.018 56.0872 239.996 55.6074C239.975 55.1276 239.953 54.6478 239.932 54.168C239.917 53.6882 239.903 53.2083 239.889 52.7285V45.2949H242.886V61ZM252.908 61H249.578V48.0664H245.313V45.2949H257.173V48.0664H252.908V61ZM268.635 61H259.59V45.2949H268.635V48.0234H262.92V51.4717H268.237V54.2002H262.92V58.25H268.635V61Z" fill="#464A53"/>
<path d="M43.3809 100H38.3271V87.1504H43.3809V88.3984H39.7246V92.6611H43.1611V93.918H39.7246V98.7256H43.3809V100ZM52.9961 100H51.2998L46.8174 89.3652H46.7471C46.7705 89.6758 46.7881 89.9775 46.7998 90.2705C46.8174 90.5576 46.8291 90.8359 46.835 91.1055C46.8408 91.375 46.8438 91.6387 46.8438 91.8965V100H45.5166V87.1504H47.2041L51.6953 97.627H51.748C51.7305 97.2812 51.7129 96.9561 51.6953 96.6514C51.6836 96.3467 51.6748 96.0625 51.6689 95.7988C51.6631 95.5293 51.6602 95.2832 51.6602 95.0605V87.1504H52.9961V100ZM57.0215 100H55.624V87.1504H60.6777V88.3984H57.0215V93.1973H60.4668V94.4629H57.0215V100ZM67.4629 100H62.4092V87.1504H67.4629V88.3984H63.8066V92.6611H67.2432V93.918H63.8066V98.7256H67.4629V100ZM71.7959 87.1504C72.6631 87.1504 73.3779 87.2822 73.9404 87.5459C74.5029 87.8037 74.9219 88.1992 75.1973 88.7324C75.4727 89.2598 75.6104 89.9277 75.6104 90.7363C75.6104 91.3105 75.54 91.8232 75.3994 92.2744C75.2588 92.7256 75.042 93.1123 74.749 93.4346C74.4561 93.7568 74.0752 94.0205 73.6064 94.2256L76.2168 100H74.6611L72.3408 94.5771H70.9961V100H69.5986V87.1504H71.7959ZM71.8047 88.416H70.9961V93.3994H71.998C72.6953 93.3994 73.2314 93.1855 73.6064 92.7578C73.9873 92.3242 74.1777 91.6738 74.1777 90.8066C74.1777 89.9629 73.9873 89.3535 73.6064 88.9785C73.2256 88.6035 72.625 88.416 71.8047 88.416ZM82.2109 100L79.0908 89.084H79.0205C79.0439 89.4766 79.0615 89.8311 79.0732 90.1475C79.0908 90.458 79.1025 90.7275 79.1084 90.9561C79.1143 91.1846 79.1172 91.3721 79.1172 91.5186V100H77.79V87.1504H79.7676L82.835 97.8379H82.8877L85.9639 87.1504H87.9678V100H86.5967V91.5537C86.5967 91.3955 86.5996 91.1992 86.6055 90.9648C86.6113 90.7305 86.6201 90.458 86.6318 90.1475C86.6494 89.8311 86.6641 89.4766 86.6758 89.084H86.6143L83.4941 100H82.2109ZM95.6406 100H90.5869V87.1504H95.6406V88.3984H91.9844V92.6611H95.4209V93.918H91.9844V98.7256H95.6406V100ZM104.755 93.417C104.755 94.8643 104.588 96.0771 104.254 97.0557C103.92 98.0283 103.422 98.7637 102.76 99.2617C102.104 99.7539 101.283 100 100.299 100H97.7764V87.1504H100.404C101.359 87.1504 102.159 87.3877 102.804 87.8623C103.448 88.3369 103.935 89.04 104.263 89.9717C104.591 90.9033 104.755 92.0518 104.755 93.417ZM103.296 93.4873C103.296 92.3682 103.188 91.4307 102.971 90.6748C102.754 89.9189 102.429 89.3506 101.995 88.9697C101.562 88.5889 101.014 88.3984 100.352 88.3984H99.1738V98.7432H100.246C101.307 98.7432 102.08 98.3037 102.566 97.4248C103.053 96.54 103.296 95.2275 103.296 93.4873ZM112.138 100L111.171 95.8691H108.121L107.154 100H105.66L108.763 87.1504H110.459L113.623 100H112.138ZM110.907 94.5771L109.923 90.2178C109.882 90.001 109.841 89.79 109.8 89.585C109.765 89.374 109.729 89.1719 109.694 88.9785C109.665 88.7793 109.636 88.5859 109.606 88.3984C109.589 88.5859 109.565 88.7793 109.536 88.9785C109.507 89.1777 109.472 89.3799 109.431 89.585C109.39 89.7842 109.346 89.9893 109.299 90.2002L108.341 94.5771H110.907ZM121.929 93.417C121.929 94.8643 121.762 96.0771 121.428 97.0557C121.094 98.0283 120.596 98.7637 119.934 99.2617C119.277 99.7539 118.457 100 117.473 100H114.95V87.1504H117.578C118.533 87.1504 119.333 87.3877 119.978 87.8623C120.622 88.3369 121.108 89.04 121.437 89.9717C121.765 90.9033 121.929 92.0518 121.929 93.417ZM120.47 93.4873C120.47 92.3682 120.361 91.4307 120.145 90.6748C119.928 89.9189 119.603 89.3506 119.169 88.9697C118.735 88.5889 118.188 88.3984 117.525 88.3984H116.348V98.7432H117.42C118.48 98.7432 119.254 98.3037 119.74 97.4248C120.227 96.54 120.47 95.2275 120.47 93.4873Z" fill="#464A53"/>
<path d="M796.63 87.1504C797.89 87.1504 798.818 87.4551 799.416 88.0645C800.02 88.6738 800.321 89.623 800.321 90.9121C800.321 91.5742 800.242 92.1572 800.084 92.6611C799.932 93.1592 799.7 93.5781 799.39 93.918C799.085 94.2578 798.698 94.5156 798.229 94.6914C797.767 94.8613 797.222 94.9463 796.595 94.9463H795.725V100H794.327V87.1504H796.63ZM796.577 88.3809H795.725V93.707H796.472C797.04 93.707 797.5 93.6133 797.852 93.4258C798.209 93.2383 798.47 92.9395 798.634 92.5293C798.804 92.1191 798.889 91.5859 798.889 90.9297C798.889 90.0215 798.701 89.3711 798.326 88.9785C797.951 88.5801 797.368 88.3809 796.577 88.3809ZM807.256 100H802.202V87.1504H807.256V88.3984H803.6V92.6611H807.036V93.918H803.6V98.7256H807.256V100ZM814.762 96.4932C814.762 97.2197 814.621 97.8613 814.34 98.418C814.064 98.9688 813.675 99.3994 813.171 99.71C812.673 100.021 812.084 100.176 811.404 100.176C811.07 100.176 810.748 100.155 810.438 100.114C810.127 100.079 809.831 100.021 809.55 99.9385C809.274 99.8564 809.011 99.7539 808.759 99.6309V98.1807C809.157 98.4033 809.588 98.5732 810.051 98.6904C810.52 98.8076 810.953 98.8662 811.352 98.8662C811.779 98.8662 812.14 98.7666 812.433 98.5674C812.726 98.3623 812.948 98.0898 813.101 97.75C813.259 97.4102 813.338 97.0352 813.338 96.625C813.338 96.1914 813.273 95.8281 813.145 95.5352C813.016 95.2363 812.805 94.9668 812.512 94.7266C812.219 94.4863 811.823 94.2373 811.325 93.9795C810.95 93.7744 810.61 93.5635 810.306 93.3467C810.001 93.1299 809.74 92.8867 809.523 92.6172C809.307 92.3418 809.14 92.0195 809.022 91.6504C808.905 91.2812 808.847 90.8418 808.847 90.332C808.835 89.6582 808.967 89.0693 809.242 88.5654C809.523 88.0557 809.91 87.6602 810.402 87.3789C810.9 87.0977 811.469 86.96 812.107 86.9658C812.594 86.9658 813.057 87.0273 813.496 87.1504C813.941 87.2676 814.325 87.4111 814.647 87.5811L814.19 88.8643C813.833 88.6709 813.479 88.5273 813.127 88.4336C812.781 88.334 812.45 88.2842 812.134 88.2842C811.741 88.2842 811.404 88.3691 811.123 88.5391C810.848 88.709 810.634 88.9434 810.481 89.2422C810.335 89.5352 810.262 89.8779 810.262 90.2705C810.262 90.7217 810.326 91.0938 810.455 91.3867C810.59 91.6797 810.804 91.9404 811.097 92.1689C811.396 92.3975 811.788 92.6436 812.274 92.9072C812.831 93.2002 813.294 93.5166 813.663 93.8564C814.032 94.1904 814.308 94.5713 814.489 94.999C814.671 95.4268 814.762 95.9248 814.762 96.4932ZM824.395 93.5576C824.395 94.4775 824.321 95.3389 824.175 96.1416C824.028 96.9385 823.797 97.6416 823.48 98.251C823.17 98.8545 822.76 99.3262 822.25 99.666C821.74 100.006 821.122 100.176 820.396 100.176C819.657 100.176 819.03 100.003 818.515 99.6572C817.999 99.3057 817.583 98.8252 817.267 98.2158C816.956 97.6064 816.728 96.9004 816.581 96.0977C816.44 95.2949 816.37 94.4424 816.37 93.54C816.37 92.0752 816.52 90.8564 816.818 89.8838C817.123 88.9111 817.574 88.1816 818.172 87.6953C818.77 87.209 819.511 86.9658 820.396 86.9658C821.356 86.9658 822.13 87.2588 822.716 87.8447C823.302 88.4248 823.727 89.2129 823.99 90.209C824.26 91.2051 824.395 92.3213 824.395 93.5576ZM817.82 93.5576C817.82 94.7236 817.917 95.7051 818.11 96.502C818.31 97.293 818.6 97.8906 818.98 98.2949C819.361 98.6992 819.827 98.9014 820.378 98.9014C820.94 98.9014 821.409 98.7051 821.784 98.3125C822.159 97.9141 822.44 97.3193 822.628 96.5283C822.821 95.7314 822.918 94.7412 822.918 93.5576C822.918 91.7939 822.707 90.4668 822.285 89.5762C821.863 88.6855 821.233 88.2402 820.396 88.2402C819.821 88.2402 819.344 88.4424 818.963 88.8467C818.582 89.2451 818.295 89.8398 818.102 90.6309C817.914 91.416 817.82 92.3916 817.82 93.5576Z" fill="#464A53"/>
<path d="M47.1123 198.15V206.983C47.1123 207.962 46.9805 208.762 46.7168 209.383C46.4531 209.998 46.0664 210.452 45.5566 210.745C45.0527 211.032 44.4287 211.176 43.6846 211.176C42.5537 211.176 41.6924 210.836 41.1006 210.156C40.5088 209.477 40.2129 208.422 40.2129 206.992V198.15H41.6104V207.001C41.6104 208.032 41.7891 208.773 42.1465 209.225C42.5098 209.676 43.0225 209.901 43.6846 209.901C44.124 209.901 44.4932 209.805 44.792 209.611C45.0908 209.418 45.3164 209.107 45.4688 208.68C45.6211 208.252 45.6973 207.687 45.6973 206.983V198.15H47.1123ZM49.6611 198.15H52.4648C53.584 198.15 54.4307 198.405 55.0049 198.915C55.5791 199.425 55.8662 200.195 55.8662 201.227C55.8662 201.777 55.7959 202.261 55.6553 202.677C55.5146 203.087 55.3066 203.421 55.0312 203.679C54.7617 203.937 54.4248 204.109 54.0205 204.197V204.268C54.501 204.379 54.8965 204.566 55.207 204.83C55.5176 205.094 55.749 205.434 55.9014 205.85C56.0537 206.26 56.1299 206.752 56.1299 207.326C56.1299 208.064 56.0039 208.709 55.752 209.26C55.5 209.811 55.1309 210.238 54.6445 210.543C54.1641 210.848 53.5752 211 52.8779 211H49.6611V198.15ZM51.0586 203.688H52.4473C53.1445 203.688 53.6514 203.494 53.9678 203.107C54.2842 202.715 54.4424 202.129 54.4424 201.35C54.4424 200.699 54.2754 200.204 53.9414 199.864C53.6074 199.519 53.1006 199.346 52.4209 199.346H51.0586V203.688ZM51.0586 204.883V209.778H52.7197C53.3643 209.778 53.8506 209.57 54.1787 209.154C54.5127 208.732 54.6797 208.1 54.6797 207.256C54.6797 206.729 54.5947 206.289 54.4248 205.938C54.2549 205.586 54.0117 205.322 53.6953 205.146C53.3789 204.971 52.998 204.883 52.5527 204.883H51.0586ZM58.1689 211V198.15H59.5664V211H58.1689ZM66.1055 199.223C65.5957 199.223 65.1562 199.366 64.7871 199.653C64.4238 199.94 64.125 200.336 63.8906 200.84C63.6621 201.338 63.4922 201.909 63.3809 202.554C63.2754 203.192 63.2227 203.866 63.2227 204.575C63.2227 205.677 63.3428 206.626 63.583 207.423C63.8291 208.22 64.1748 208.835 64.6201 209.269C65.0654 209.696 65.5898 209.91 66.1934 209.91C66.5566 209.91 66.8994 209.863 67.2217 209.77C67.5439 209.676 67.8398 209.562 68.1094 209.427V210.692C67.8281 210.856 67.5146 210.977 67.1689 211.053C66.8232 211.135 66.4453 211.176 66.0352 211.176C65.1621 211.176 64.4062 210.912 63.7676 210.385C63.1289 209.857 62.6367 209.102 62.291 208.117C61.9453 207.127 61.7725 205.94 61.7725 204.558C61.7725 203.649 61.8574 202.797 62.0273 202C62.2031 201.203 62.4668 200.5 62.8184 199.891C63.1758 199.281 63.624 198.807 64.1631 198.467C64.7021 198.121 65.335 197.948 66.0615 197.948C66.4834 197.948 66.8877 198.004 67.2744 198.115C67.667 198.221 68.042 198.376 68.3994 198.581L67.8984 199.768C67.6289 199.598 67.3447 199.466 67.0459 199.372C66.7471 199.272 66.4336 199.223 66.1055 199.223ZM75.3076 211L74.3408 206.869H71.291L70.3242 211H68.8301L71.9326 198.15H73.6289L76.793 211H75.3076ZM74.0771 205.577L73.0928 201.218C73.0518 201.001 73.0107 200.79 72.9697 200.585C72.9346 200.374 72.8994 200.172 72.8643 199.979C72.835 199.779 72.8057 199.586 72.7764 199.398C72.7588 199.586 72.7354 199.779 72.7061 199.979C72.6768 200.178 72.6416 200.38 72.6006 200.585C72.5596 200.784 72.5156 200.989 72.4688 201.2L71.5107 205.577H74.0771ZM82.0312 199.223C81.5215 199.223 81.082 199.366 80.7129 199.653C80.3496 199.94 80.0508 200.336 79.8164 200.84C79.5879 201.338 79.418 201.909 79.3066 202.554C79.2012 203.192 79.1484 203.866 79.1484 204.575C79.1484 205.677 79.2686 206.626 79.5088 207.423C79.7549 208.22 80.1006 208.835 80.5459 209.269C80.9912 209.696 81.5156 209.91 82.1191 209.91C82.4824 209.91 82.8252 209.863 83.1475 209.77C83.4697 209.676 83.7656 209.562 84.0352 209.427V210.692C83.7539 210.856 83.4404 210.977 83.0947 211.053C82.749 211.135 82.3711 211.176 81.9609 211.176C81.0879 211.176 80.332 210.912 79.6934 210.385C79.0547 209.857 78.5625 209.102 78.2168 208.117C77.8711 207.127 77.6982 205.94 77.6982 204.558C77.6982 203.649 77.7832 202.797 77.9531 202C78.1289 201.203 78.3926 200.5 78.7441 199.891C79.1016 199.281 79.5498 198.807 80.0889 198.467C80.6279 198.121 81.2607 197.948 81.9873 197.948C82.4092 197.948 82.8135 198.004 83.2002 198.115C83.5928 198.221 83.9678 198.376 84.3252 198.581L83.8242 199.768C83.5547 199.598 83.2705 199.466 82.9717 199.372C82.6729 199.272 82.3594 199.223 82.0312 199.223ZM86.083 211V198.15H87.4805V211H86.083ZM97.7109 204.558C97.7109 205.478 97.6377 206.339 97.4912 207.142C97.3447 207.938 97.1133 208.642 96.7969 209.251C96.4863 209.854 96.0762 210.326 95.5664 210.666C95.0566 211.006 94.4385 211.176 93.7119 211.176C92.9736 211.176 92.3467 211.003 91.8311 210.657C91.3154 210.306 90.8994 209.825 90.583 209.216C90.2725 208.606 90.0439 207.9 89.8975 207.098C89.7568 206.295 89.6865 205.442 89.6865 204.54C89.6865 203.075 89.8359 201.856 90.1348 200.884C90.4395 199.911 90.8906 199.182 91.4883 198.695C92.0859 198.209 92.8271 197.966 93.7119 197.966C94.6729 197.966 95.4463 198.259 96.0322 198.845C96.6182 199.425 97.043 200.213 97.3066 201.209C97.5762 202.205 97.7109 203.321 97.7109 204.558ZM91.1367 204.558C91.1367 205.724 91.2334 206.705 91.4268 207.502C91.626 208.293 91.916 208.891 92.2969 209.295C92.6777 209.699 93.1436 209.901 93.6943 209.901C94.2568 209.901 94.7256 209.705 95.1006 209.312C95.4756 208.914 95.7568 208.319 95.9443 207.528C96.1377 206.731 96.2344 205.741 96.2344 204.558C96.2344 202.794 96.0234 201.467 95.6016 200.576C95.1797 199.686 94.5498 199.24 93.7119 199.24C93.1377 199.24 92.6602 199.442 92.2793 199.847C91.8984 200.245 91.6113 200.84 91.418 201.631C91.2305 202.416 91.1367 203.392 91.1367 204.558ZM107.414 211H105.718L101.235 200.365H101.165C101.188 200.676 101.206 200.978 101.218 201.271C101.235 201.558 101.247 201.836 101.253 202.105C101.259 202.375 101.262 202.639 101.262 202.896V211H99.9346V198.15H101.622L106.113 208.627H106.166C106.148 208.281 106.131 207.956 106.113 207.651C106.102 207.347 106.093 207.062 106.087 206.799C106.081 206.529 106.078 206.283 106.078 206.061V198.15H107.414V211Z" fill="#464A53"/>
<path d="M798.238 199.223C797.729 199.223 797.289 199.366 796.92 199.653C796.557 199.94 796.258 200.336 796.023 200.84C795.795 201.338 795.625 201.909 795.514 202.554C795.408 203.192 795.355 203.866 795.355 204.575C795.355 205.677 795.476 206.626 795.716 207.423C795.962 208.22 796.308 208.835 796.753 209.269C797.198 209.696 797.723 209.91 798.326 209.91C798.689 209.91 799.032 209.863 799.354 209.77C799.677 209.676 799.973 209.562 800.242 209.427V210.692C799.961 210.856 799.647 210.977 799.302 211.053C798.956 211.135 798.578 211.176 798.168 211.176C797.295 211.176 796.539 210.912 795.9 210.385C795.262 209.857 794.77 209.102 794.424 208.117C794.078 207.127 793.905 205.94 793.905 204.558C793.905 203.649 793.99 202.797 794.16 202C794.336 201.203 794.6 200.5 794.951 199.891C795.309 199.281 795.757 198.807 796.296 198.467C796.835 198.121 797.468 197.948 798.194 197.948C798.616 197.948 799.021 198.004 799.407 198.115C799.8 198.221 800.175 198.376 800.532 198.581L800.031 199.768C799.762 199.598 799.478 199.466 799.179 199.372C798.88 199.272 798.566 199.223 798.238 199.223ZM809.893 204.558C809.893 205.478 809.819 206.339 809.673 207.142C809.526 207.938 809.295 208.642 808.979 209.251C808.668 209.854 808.258 210.326 807.748 210.666C807.238 211.006 806.62 211.176 805.894 211.176C805.155 211.176 804.528 211.003 804.013 210.657C803.497 210.306 803.081 209.825 802.765 209.216C802.454 208.606 802.226 207.9 802.079 207.098C801.938 206.295 801.868 205.442 801.868 204.54C801.868 203.075 802.018 201.856 802.316 200.884C802.621 199.911 803.072 199.182 803.67 198.695C804.268 198.209 805.009 197.966 805.894 197.966C806.854 197.966 807.628 198.259 808.214 198.845C808.8 199.425 809.225 200.213 809.488 201.209C809.758 202.205 809.893 203.321 809.893 204.558ZM803.318 204.558C803.318 205.724 803.415 206.705 803.608 207.502C803.808 208.293 804.098 208.891 804.479 209.295C804.859 209.699 805.325 209.901 805.876 209.901C806.438 209.901 806.907 209.705 807.282 209.312C807.657 208.914 807.938 208.319 808.126 207.528C808.319 206.731 808.416 205.741 808.416 204.558C808.416 202.794 808.205 201.467 807.783 200.576C807.361 199.686 806.731 199.24 805.894 199.24C805.319 199.24 804.842 199.442 804.461 199.847C804.08 200.245 803.793 200.84 803.6 201.631C803.412 202.416 803.318 203.392 803.318 204.558ZM816.537 211L813.417 200.084H813.347C813.37 200.477 813.388 200.831 813.399 201.147C813.417 201.458 813.429 201.728 813.435 201.956C813.44 202.185 813.443 202.372 813.443 202.519V211H812.116V198.15H814.094L817.161 208.838H817.214L820.29 198.15H822.294V211H820.923V202.554C820.923 202.396 820.926 202.199 820.932 201.965C820.938 201.73 820.946 201.458 820.958 201.147C820.976 200.831 820.99 200.477 821.002 200.084H820.94L817.82 211H816.537ZM829.967 211H824.913V198.15H829.967V199.398H826.311V203.661H829.747V204.918H826.311V209.726H829.967V211ZM839.582 211H837.886L833.403 200.365H833.333C833.356 200.676 833.374 200.978 833.386 201.271C833.403 201.558 833.415 201.836 833.421 202.105C833.427 202.375 833.43 202.639 833.43 202.896V211H832.103V198.15H833.79L838.281 208.627H838.334C838.316 208.281 838.299 207.956 838.281 207.651C838.27 207.347 838.261 207.062 838.255 206.799C838.249 206.529 838.246 206.283 838.246 206.061V198.15H839.582V211ZM844.952 211H843.555V199.416H841.05V198.15H847.466V199.416H844.952V211ZM854.128 211L853.161 206.869H850.111L849.145 211H847.65L850.753 198.15H852.449L855.613 211H854.128ZM852.897 205.577L851.913 201.218C851.872 201.001 851.831 200.79 851.79 200.585C851.755 200.374 851.72 200.172 851.685 199.979C851.655 199.779 851.626 199.586 851.597 199.398C851.579 199.586 851.556 199.779 851.526 199.979C851.497 200.178 851.462 200.38 851.421 200.585C851.38 200.784 851.336 200.989 851.289 201.2L850.331 205.577H852.897ZM859.138 198.15C860.005 198.15 860.72 198.282 861.282 198.546C861.845 198.804 862.264 199.199 862.539 199.732C862.814 200.26 862.952 200.928 862.952 201.736C862.952 202.311 862.882 202.823 862.741 203.274C862.601 203.726 862.384 204.112 862.091 204.435C861.798 204.757 861.417 205.021 860.948 205.226L863.559 211H862.003L859.683 205.577H858.338V211H856.94V198.15H859.138ZM859.146 199.416H858.338V204.399H859.34C860.037 204.399 860.573 204.186 860.948 203.758C861.329 203.324 861.52 202.674 861.52 201.807C861.52 200.963 861.329 200.354 860.948 199.979C860.567 199.604 859.967 199.416 859.146 199.416ZM865.132 211V198.15H866.529V211H865.132ZM876.76 204.558C876.76 205.478 876.687 206.339 876.54 207.142C876.394 207.938 876.162 208.642 875.846 209.251C875.535 209.854 875.125 210.326 874.615 210.666C874.105 211.006 873.487 211.176 872.761 211.176C872.022 211.176 871.396 211.003 870.88 210.657C870.364 210.306 869.948 209.825 869.632 209.216C869.321 208.606 869.093 207.9 868.946 207.098C868.806 206.295 868.735 205.442 868.735 204.54C868.735 203.075 868.885 201.856 869.184 200.884C869.488 199.911 869.939 199.182 870.537 198.695C871.135 198.209 871.876 197.966 872.761 197.966C873.722 197.966 874.495 198.259 875.081 198.845C875.667 199.425 876.092 200.213 876.355 201.209C876.625 202.205 876.76 203.321 876.76 204.558ZM870.186 204.558C870.186 205.724 870.282 206.705 870.476 207.502C870.675 208.293 870.965 208.891 871.346 209.295C871.727 209.699 872.192 209.901 872.743 209.901C873.306 209.901 873.774 209.705 874.149 209.312C874.524 208.914 874.806 208.319 874.993 207.528C875.187 206.731 875.283 205.741 875.283 204.558C875.283 202.794 875.072 201.467 874.65 200.576C874.229 199.686 873.599 199.24 872.761 199.24C872.187 199.24 871.709 199.442 871.328 199.847C870.947 200.245 870.66 200.84 870.467 201.631C870.279 202.416 870.186 203.392 870.186 204.558Z" fill="#464A53"/>
<path d="M45.3809 322H40.3271V309.15H45.3809V310.398H41.7246V314.661H45.1611V315.918H41.7246V320.726H45.3809V322ZM54.4951 315.417C54.4951 316.864 54.3281 318.077 53.9941 319.056C53.6602 320.028 53.1621 320.764 52.5 321.262C51.8438 321.754 51.0234 322 50.0391 322H47.5166V309.15H50.1445C51.0996 309.15 51.8994 309.388 52.5439 309.862C53.1885 310.337 53.6748 311.04 54.0029 311.972C54.3311 312.903 54.4951 314.052 54.4951 315.417ZM53.0361 315.487C53.0361 314.368 52.9277 313.431 52.7109 312.675C52.4941 311.919 52.1689 311.351 51.7354 310.97C51.3018 310.589 50.7539 310.398 50.0918 310.398H48.9141V320.743H49.9863C51.0469 320.743 51.8203 320.304 52.3066 319.425C52.793 318.54 53.0361 317.228 53.0361 315.487ZM61.8779 322L60.9111 317.869H57.8613L56.8945 322H55.4004L58.5029 309.15H60.1992L63.3633 322H61.8779ZM60.6475 316.577L59.6631 312.218C59.6221 312.001 59.5811 311.79 59.54 311.585C59.5049 311.374 59.4697 311.172 59.4346 310.979C59.4053 310.779 59.376 310.586 59.3467 310.398C59.3291 310.586 59.3057 310.779 59.2764 310.979C59.2471 311.178 59.2119 311.38 59.1709 311.585C59.1299 311.784 59.0859 311.989 59.0391 312.2L58.0811 316.577H60.6475ZM71.6689 315.417C71.6689 316.864 71.502 318.077 71.168 319.056C70.834 320.028 70.3359 320.764 69.6738 321.262C69.0176 321.754 68.1973 322 67.2129 322H64.6904V309.15H67.3184C68.2734 309.15 69.0732 309.388 69.7178 309.862C70.3623 310.337 70.8486 311.04 71.1768 311.972C71.5049 312.903 71.6689 314.052 71.6689 315.417ZM70.21 315.487C70.21 314.368 70.1016 313.431 69.8848 312.675C69.668 311.919 69.3428 311.351 68.9092 310.97C68.4756 310.589 67.9277 310.398 67.2656 310.398H66.0879V320.743H67.1602C68.2207 320.743 68.9941 320.304 69.4805 319.425C69.9668 318.54 70.21 317.228 70.21 315.487Z" fill="#464A53"/>
<rect x="39.5" y="119.5" width="706" height="41.6052" rx="7.43673" fill="white" stroke="#BBBBBB"/>
<rect x="791.5" y="235.5" width="706" height="106" rx="7.43673" fill="white" stroke="#BBBBBB"/>
<path d="M810.478 269L809.511 264.869H806.461L805.494 269H804L807.103 256.15H808.799L811.963 269H810.478ZM809.247 263.577L808.263 259.218C808.222 259.001 808.181 258.79 808.14 258.585C808.104 258.374 808.069 258.172 808.034 257.979C808.005 257.779 807.976 257.586 807.946 257.398C807.929 257.586 807.905 257.779 807.876 257.979C807.847 258.178 807.812 258.38 807.771 258.585C807.729 258.784 807.686 258.989 807.639 259.2L806.681 263.577H809.247ZM815.426 262.32L817.403 256.15H818.871L816.111 263.999V269H814.714V264.034L811.963 256.15H813.422L815.426 262.32ZM826.983 256.15V264.983C826.983 265.962 826.852 266.762 826.588 267.383C826.324 267.998 825.938 268.452 825.428 268.745C824.924 269.032 824.3 269.176 823.556 269.176C822.425 269.176 821.563 268.836 820.972 268.156C820.38 267.477 820.084 266.422 820.084 264.992V256.15H821.481V265.001C821.481 266.032 821.66 266.773 822.018 267.225C822.381 267.676 822.894 267.901 823.556 267.901C823.995 267.901 824.364 267.805 824.663 267.611C824.962 267.418 825.188 267.107 825.34 266.68C825.492 266.252 825.568 265.687 825.568 264.983V256.15H826.983ZM836.511 262.417C836.511 263.864 836.344 265.077 836.01 266.056C835.676 267.028 835.178 267.764 834.516 268.262C833.859 268.754 833.039 269 832.055 269H829.532V256.15H832.16C833.115 256.15 833.915 256.388 834.56 256.862C835.204 257.337 835.69 258.04 836.019 258.972C836.347 259.903 836.511 261.052 836.511 262.417ZM835.052 262.487C835.052 261.368 834.943 260.431 834.727 259.675C834.51 258.919 834.185 258.351 833.751 257.97C833.317 257.589 832.77 257.398 832.107 257.398H830.93V267.743H832.002C833.062 267.743 833.836 267.304 834.322 266.425C834.809 265.54 835.052 264.228 835.052 262.487ZM843.894 269L842.927 264.869H839.877L838.91 269H837.416L840.519 256.15H842.215L845.379 269H843.894ZM842.663 263.577L841.679 259.218C841.638 259.001 841.597 258.79 841.556 258.585C841.521 258.374 841.485 258.172 841.45 257.979C841.421 257.779 841.392 257.586 841.362 257.398C841.345 257.586 841.321 257.779 841.292 257.979C841.263 258.178 841.228 258.38 841.187 258.585C841.146 258.784 841.102 258.989 841.055 259.2L840.097 263.577H842.663ZM854.186 269H852.489L848.007 258.365H847.937C847.96 258.676 847.978 258.978 847.989 259.271C848.007 259.558 848.019 259.836 848.024 260.105C848.03 260.375 848.033 260.639 848.033 260.896V269H846.706V256.15H848.394L852.885 266.627H852.938C852.92 266.281 852.902 265.956 852.885 265.651C852.873 265.347 852.864 265.062 852.858 264.799C852.853 264.529 852.85 264.283 852.85 264.061V256.15H854.186V269ZM864.416 262.558C864.416 263.478 864.343 264.339 864.196 265.142C864.05 265.938 863.818 266.642 863.502 267.251C863.191 267.854 862.781 268.326 862.271 268.666C861.762 269.006 861.144 269.176 860.417 269.176C859.679 269.176 859.052 269.003 858.536 268.657C858.021 268.306 857.604 267.825 857.288 267.216C856.978 266.606 856.749 265.9 856.603 265.098C856.462 264.295 856.392 263.442 856.392 262.54C856.392 261.075 856.541 259.856 856.84 258.884C857.145 257.911 857.596 257.182 858.193 256.695C858.791 256.209 859.532 255.966 860.417 255.966C861.378 255.966 862.151 256.259 862.737 256.845C863.323 257.425 863.748 258.213 864.012 259.209C864.281 260.205 864.416 261.321 864.416 262.558ZM857.842 262.558C857.842 263.724 857.938 264.705 858.132 265.502C858.331 266.293 858.621 266.891 859.002 267.295C859.383 267.699 859.849 267.901 860.399 267.901C860.962 267.901 861.431 267.705 861.806 267.312C862.181 266.914 862.462 266.319 862.649 265.528C862.843 264.731 862.939 263.741 862.939 262.558C862.939 260.794 862.729 259.467 862.307 258.576C861.885 257.686 861.255 257.24 860.417 257.24C859.843 257.24 859.365 257.442 858.984 257.847C858.604 258.245 858.316 258.84 858.123 259.631C857.936 260.416 857.842 261.392 857.842 262.558ZM872.01 265.493C872.01 266.22 871.869 266.861 871.588 267.418C871.312 267.969 870.923 268.399 870.419 268.71C869.921 269.021 869.332 269.176 868.652 269.176C868.318 269.176 867.996 269.155 867.686 269.114C867.375 269.079 867.079 269.021 866.798 268.938C866.522 268.856 866.259 268.754 866.007 268.631V267.181C866.405 267.403 866.836 267.573 867.299 267.69C867.768 267.808 868.201 267.866 868.6 267.866C869.027 267.866 869.388 267.767 869.681 267.567C869.974 267.362 870.196 267.09 870.349 266.75C870.507 266.41 870.586 266.035 870.586 265.625C870.586 265.191 870.521 264.828 870.393 264.535C870.264 264.236 870.053 263.967 869.76 263.727C869.467 263.486 869.071 263.237 868.573 262.979C868.198 262.774 867.858 262.563 867.554 262.347C867.249 262.13 866.988 261.887 866.771 261.617C866.555 261.342 866.388 261.02 866.271 260.65C866.153 260.281 866.095 259.842 866.095 259.332C866.083 258.658 866.215 258.069 866.49 257.565C866.771 257.056 867.158 256.66 867.65 256.379C868.148 256.098 868.717 255.96 869.355 255.966C869.842 255.966 870.305 256.027 870.744 256.15C871.189 256.268 871.573 256.411 871.896 256.581L871.438 257.864C871.081 257.671 870.727 257.527 870.375 257.434C870.029 257.334 869.698 257.284 869.382 257.284C868.989 257.284 868.652 257.369 868.371 257.539C868.096 257.709 867.882 257.943 867.729 258.242C867.583 258.535 867.51 258.878 867.51 259.271C867.51 259.722 867.574 260.094 867.703 260.387C867.838 260.68 868.052 260.94 868.345 261.169C868.644 261.397 869.036 261.644 869.522 261.907C870.079 262.2 870.542 262.517 870.911 262.856C871.28 263.19 871.556 263.571 871.737 263.999C871.919 264.427 872.01 264.925 872.01 265.493ZM884.165 256.15V264.983C884.165 265.962 884.033 266.762 883.77 267.383C883.506 267.998 883.119 268.452 882.609 268.745C882.105 269.032 881.481 269.176 880.737 269.176C879.606 269.176 878.745 268.836 878.153 268.156C877.562 267.477 877.266 266.422 877.266 264.992V256.15H878.663V265.001C878.663 266.032 878.842 266.773 879.199 267.225C879.562 267.676 880.075 267.901 880.737 267.901C881.177 267.901 881.546 267.805 881.845 267.611C882.144 267.418 882.369 267.107 882.521 266.68C882.674 266.252 882.75 265.687 882.75 264.983V256.15H884.165ZM894.193 269H892.497L888.015 258.365H887.944C887.968 258.676 887.985 258.978 887.997 259.271C888.015 259.558 888.026 259.836 888.032 260.105C888.038 260.375 888.041 260.639 888.041 260.896V269H886.714V256.15H888.401L892.893 266.627H892.945C892.928 266.281 892.91 265.956 892.893 265.651C892.881 265.347 892.872 265.062 892.866 264.799C892.86 264.529 892.857 264.283 892.857 264.061V256.15H894.193V269ZM902.464 256.15C903.724 256.15 904.652 256.455 905.25 257.064C905.854 257.674 906.155 258.623 906.155 259.912C906.155 260.574 906.076 261.157 905.918 261.661C905.766 262.159 905.534 262.578 905.224 262.918C904.919 263.258 904.532 263.516 904.063 263.691C903.601 263.861 903.056 263.946 902.429 263.946H901.559V269H900.161V256.15H902.464ZM902.411 257.381H901.559V262.707H902.306C902.874 262.707 903.334 262.613 903.686 262.426C904.043 262.238 904.304 261.939 904.468 261.529C904.638 261.119 904.723 260.586 904.723 259.93C904.723 259.021 904.535 258.371 904.16 257.979C903.785 257.58 903.202 257.381 902.411 257.381ZM915.639 262.558C915.639 263.478 915.565 264.339 915.419 265.142C915.272 265.938 915.041 266.642 914.725 267.251C914.414 267.854 914.004 268.326 913.494 268.666C912.984 269.006 912.366 269.176 911.64 269.176C910.901 269.176 910.274 269.003 909.759 268.657C909.243 268.306 908.827 267.825 908.511 267.216C908.2 266.606 907.972 265.9 907.825 265.098C907.685 264.295 907.614 263.442 907.614 262.54C907.614 261.075 907.764 259.856 908.062 258.884C908.367 257.911 908.818 257.182 909.416 256.695C910.014 256.209 910.755 255.966 911.64 255.966C912.601 255.966 913.374 256.259 913.96 256.845C914.546 257.425 914.971 258.213 915.234 259.209C915.504 260.205 915.639 261.321 915.639 262.558ZM909.064 262.558C909.064 263.724 909.161 264.705 909.354 265.502C909.554 266.293 909.844 266.891 910.225 267.295C910.605 267.699 911.071 267.901 911.622 267.901C912.185 267.901 912.653 267.705 913.028 267.312C913.403 266.914 913.685 266.319 913.872 265.528C914.065 264.731 914.162 263.741 914.162 262.558C914.162 260.794 913.951 259.467 913.529 258.576C913.107 257.686 912.478 257.24 911.64 257.24C911.065 257.24 910.588 257.442 910.207 257.847C909.826 258.245 909.539 258.84 909.346 259.631C909.158 260.416 909.064 261.392 909.064 262.558ZM921.773 257.223C921.264 257.223 920.824 257.366 920.455 257.653C920.092 257.94 919.793 258.336 919.559 258.84C919.33 259.338 919.16 259.909 919.049 260.554C918.943 261.192 918.891 261.866 918.891 262.575C918.891 263.677 919.011 264.626 919.251 265.423C919.497 266.22 919.843 266.835 920.288 267.269C920.733 267.696 921.258 267.91 921.861 267.91C922.225 267.91 922.567 267.863 922.89 267.77C923.212 267.676 923.508 267.562 923.777 267.427V268.692C923.496 268.856 923.183 268.977 922.837 269.053C922.491 269.135 922.113 269.176 921.703 269.176C920.83 269.176 920.074 268.912 919.436 268.385C918.797 267.857 918.305 267.102 917.959 266.117C917.613 265.127 917.44 263.94 917.44 262.558C917.44 261.649 917.525 260.797 917.695 260C917.871 259.203 918.135 258.5 918.486 257.891C918.844 257.281 919.292 256.807 919.831 256.467C920.37 256.121 921.003 255.948 921.729 255.948C922.151 255.948 922.556 256.004 922.942 256.115C923.335 256.221 923.71 256.376 924.067 256.581L923.566 257.768C923.297 257.598 923.013 257.466 922.714 257.372C922.415 257.272 922.102 257.223 921.773 257.223ZM933.428 262.558C933.428 263.478 933.354 264.339 933.208 265.142C933.062 265.938 932.83 266.642 932.514 267.251C932.203 267.854 931.793 268.326 931.283 268.666C930.773 269.006 930.155 269.176 929.429 269.176C928.69 269.176 928.063 269.003 927.548 268.657C927.032 268.306 926.616 267.825 926.3 267.216C925.989 266.606 925.761 265.9 925.614 265.098C925.474 264.295 925.403 263.442 925.403 262.54C925.403 261.075 925.553 259.856 925.852 258.884C926.156 257.911 926.607 257.182 927.205 256.695C927.803 256.209 928.544 255.966 929.429 255.966C930.39 255.966 931.163 256.259 931.749 256.845C932.335 257.425 932.76 258.213 933.023 259.209C933.293 260.205 933.428 261.321 933.428 262.558ZM926.854 262.558C926.854 263.724 926.95 264.705 927.144 265.502C927.343 266.293 927.633 266.891 928.014 267.295C928.395 267.699 928.86 267.901 929.411 267.901C929.974 267.901 930.442 267.705 930.817 267.312C931.192 266.914 931.474 266.319 931.661 265.528C931.854 264.731 931.951 263.741 931.951 262.558C931.951 260.794 931.74 259.467 931.318 258.576C930.896 257.686 930.267 257.24 929.429 257.24C928.854 257.24 928.377 257.442 927.996 257.847C927.615 258.245 927.328 258.84 927.135 259.631C926.947 260.416 926.854 261.392 926.854 262.558ZM942.902 257.223C942.393 257.223 941.953 257.366 941.584 257.653C941.221 257.94 940.922 258.336 940.688 258.84C940.459 259.338 940.289 259.909 940.178 260.554C940.072 261.192 940.02 261.866 940.02 262.575C940.02 263.677 940.14 264.626 940.38 265.423C940.626 266.22 940.972 266.835 941.417 267.269C941.862 267.696 942.387 267.91 942.99 267.91C943.354 267.91 943.696 267.863 944.019 267.77C944.341 267.676 944.637 267.562 944.906 267.427V268.692C944.625 268.856 944.312 268.977 943.966 269.053C943.62 269.135 943.242 269.176 942.832 269.176C941.959 269.176 941.203 268.912 940.564 268.385C939.926 267.857 939.434 267.102 939.088 266.117C938.742 265.127 938.569 263.94 938.569 262.558C938.569 261.649 938.654 260.797 938.824 260C939 259.203 939.264 258.5 939.615 257.891C939.973 257.281 940.421 256.807 940.96 256.467C941.499 256.121 942.132 255.948 942.858 255.948C943.28 255.948 943.685 256.004 944.071 256.115C944.464 256.221 944.839 256.376 945.196 256.581L944.695 257.768C944.426 257.598 944.142 257.466 943.843 257.372C943.544 257.272 943.23 257.223 942.902 257.223ZM954.557 262.558C954.557 263.478 954.483 264.339 954.337 265.142C954.19 265.938 953.959 266.642 953.643 267.251C953.332 267.854 952.922 268.326 952.412 268.666C951.902 269.006 951.284 269.176 950.558 269.176C949.819 269.176 949.192 269.003 948.677 268.657C948.161 268.306 947.745 267.825 947.429 267.216C947.118 266.606 946.89 265.9 946.743 265.098C946.603 264.295 946.532 263.442 946.532 262.54C946.532 261.075 946.682 259.856 946.98 258.884C947.285 257.911 947.736 257.182 948.334 256.695C948.932 256.209 949.673 255.966 950.558 255.966C951.519 255.966 952.292 256.259 952.878 256.845C953.464 257.425 953.889 258.213 954.152 259.209C954.422 260.205 954.557 261.321 954.557 262.558ZM947.982 262.558C947.982 263.724 948.079 264.705 948.272 265.502C948.472 266.293 948.762 266.891 949.143 267.295C949.523 267.699 949.989 267.901 950.54 267.901C951.103 267.901 951.571 267.705 951.946 267.312C952.321 266.914 952.603 266.319 952.79 265.528C952.983 264.731 953.08 263.741 953.08 262.558C953.08 260.794 952.869 259.467 952.447 258.576C952.025 257.686 951.396 257.24 950.558 257.24C949.983 257.24 949.506 257.442 949.125 257.847C948.744 258.245 948.457 258.84 948.264 259.631C948.076 260.416 947.982 261.392 947.982 262.558ZM964.26 269H962.563L958.081 258.365H958.011C958.034 258.676 958.052 258.978 958.063 259.271C958.081 259.558 958.093 259.836 958.099 260.105C958.104 260.375 958.107 260.639 958.107 260.896V269H956.78V256.15H958.468L962.959 266.627H963.012C962.994 266.281 962.977 265.956 962.959 265.651C962.947 265.347 962.938 265.062 962.933 264.799C962.927 264.529 962.924 264.283 962.924 264.061V256.15H964.26V269ZM977.206 262.417C977.206 263.864 977.039 265.077 976.705 266.056C976.371 267.028 975.873 267.764 975.211 268.262C974.555 268.754 973.734 269 972.75 269H970.228V256.15H972.855C973.811 256.15 974.61 256.388 975.255 256.862C975.899 257.337 976.386 258.04 976.714 258.972C977.042 259.903 977.206 261.052 977.206 262.417ZM975.747 262.487C975.747 261.368 975.639 260.431 975.422 259.675C975.205 258.919 974.88 258.351 974.446 257.97C974.013 257.589 973.465 257.398 972.803 257.398H971.625V267.743H972.697C973.758 267.743 974.531 267.304 975.018 266.425C975.504 265.54 975.747 264.228 975.747 262.487ZM984.589 269L983.622 264.869H980.572L979.605 269H978.111L981.214 256.15H982.91L986.074 269H984.589ZM983.358 263.577L982.374 259.218C982.333 259.001 982.292 258.79 982.251 258.585C982.216 258.374 982.181 258.172 982.146 257.979C982.116 257.779 982.087 257.586 982.058 257.398C982.04 257.586 982.017 257.779 981.987 257.979C981.958 258.178 981.923 258.38 981.882 258.585C981.841 258.784 981.797 258.989 981.75 259.2L980.792 263.577H983.358ZM990.144 269H988.746V257.416H986.241V256.15H992.657V257.416H990.144V269ZM1001.77 262.558C1001.77 263.478 1001.7 264.339 1001.55 265.142C1001.41 265.938 1001.17 266.642 1000.86 267.251C1000.55 267.854 1000.14 268.326 999.627 268.666C999.117 269.006 998.499 269.176 997.772 269.176C997.034 269.176 996.407 269.003 995.892 268.657C995.376 268.306 994.96 267.825 994.644 267.216C994.333 266.606 994.104 265.9 993.958 265.098C993.817 264.295 993.747 263.442 993.747 262.54C993.747 261.075 993.896 259.856 994.195 258.884C994.5 257.911 994.951 257.182 995.549 256.695C996.146 256.209 996.888 255.966 997.772 255.966C998.733 255.966 999.507 256.259 1000.09 256.845C1000.68 257.425 1001.1 258.213 1001.37 259.209C1001.64 260.205 1001.77 261.321 1001.77 262.558ZM995.197 262.558C995.197 263.724 995.294 264.705 995.487 265.502C995.687 266.293 995.977 266.891 996.357 267.295C996.738 267.699 997.204 267.901 997.755 267.901C998.317 267.901 998.786 267.705 999.161 267.312C999.536 266.914 999.817 266.319 1000 265.528C1000.2 264.731 1000.29 263.741 1000.29 262.558C1000.29 260.794 1000.08 259.467 999.662 258.576C999.24 257.686 998.61 257.24 997.772 257.24C997.198 257.24 996.721 257.442 996.34 257.847C995.959 258.245 995.672 258.84 995.479 259.631C995.291 260.416 995.197 261.392 995.197 262.558ZM1009.37 265.493C1009.37 266.22 1009.22 266.861 1008.94 267.418C1008.67 267.969 1008.28 268.399 1007.77 268.71C1007.28 269.021 1006.69 269.176 1006.01 269.176C1005.67 269.176 1005.35 269.155 1005.04 269.114C1004.73 269.079 1004.43 269.021 1004.15 268.938C1003.88 268.856 1003.61 268.754 1003.36 268.631V267.181C1003.76 267.403 1004.19 267.573 1004.65 267.69C1005.12 267.808 1005.56 267.866 1005.96 267.866C1006.38 267.866 1006.74 267.767 1007.04 267.567C1007.33 267.362 1007.55 267.09 1007.7 266.75C1007.86 266.41 1007.94 266.035 1007.94 265.625C1007.94 265.191 1007.88 264.828 1007.75 264.535C1007.62 264.236 1007.41 263.967 1007.12 263.727C1006.82 263.486 1006.43 263.237 1005.93 262.979C1005.55 262.774 1005.21 262.563 1004.91 262.347C1004.6 262.13 1004.34 261.887 1004.13 261.617C1003.91 261.342 1003.74 261.02 1003.63 260.65C1003.51 260.281 1003.45 259.842 1003.45 259.332C1003.44 258.658 1003.57 258.069 1003.85 257.565C1004.13 257.056 1004.51 256.66 1005.01 256.379C1005.5 256.098 1006.07 255.96 1006.71 255.966C1007.2 255.966 1007.66 256.027 1008.1 256.15C1008.54 256.268 1008.93 256.411 1009.25 256.581L1008.79 257.864C1008.44 257.671 1008.08 257.527 1007.73 257.434C1007.38 257.334 1007.05 257.284 1006.74 257.284C1006.34 257.284 1006.01 257.369 1005.73 257.539C1005.45 257.709 1005.24 257.943 1005.08 258.242C1004.94 258.535 1004.87 258.878 1004.87 259.271C1004.87 259.722 1004.93 260.094 1005.06 260.387C1005.19 260.68 1005.41 260.94 1005.7 261.169C1006 261.397 1006.39 261.644 1006.88 261.907C1007.43 262.2 1007.9 262.517 1008.27 262.856C1008.64 263.19 1008.91 263.571 1009.09 263.999C1009.27 264.427 1009.37 264.925 1009.37 265.493ZM1014.74 269V256.15H1016.13V269H1014.74ZM1023.18 269L1020.06 258.084H1019.99C1020.01 258.477 1020.03 258.831 1020.04 259.147C1020.06 259.458 1020.07 259.728 1020.08 259.956C1020.08 260.185 1020.09 260.372 1020.09 260.519V269H1018.76V256.15H1020.74L1023.81 266.838H1023.86L1026.93 256.15H1028.94V269H1027.57V260.554C1027.57 260.396 1027.57 260.199 1027.58 259.965C1027.58 259.73 1027.59 259.458 1027.6 259.147C1027.62 258.831 1027.63 258.477 1027.65 258.084H1027.58L1024.46 269H1023.18ZM1033.86 256.15C1035.12 256.15 1036.05 256.455 1036.65 257.064C1037.25 257.674 1037.55 258.623 1037.55 259.912C1037.55 260.574 1037.47 261.157 1037.31 261.661C1037.16 262.159 1036.93 262.578 1036.62 262.918C1036.32 263.258 1035.93 263.516 1035.46 263.691C1035 263.861 1034.45 263.946 1033.83 263.946H1032.96V269H1031.56V256.15H1033.86ZM1033.81 257.381H1032.96V262.707H1033.7C1034.27 262.707 1034.73 262.613 1035.08 262.426C1035.44 262.238 1035.7 261.939 1035.86 261.529C1036.03 261.119 1036.12 260.586 1036.12 259.93C1036.12 259.021 1035.93 258.371 1035.56 257.979C1035.18 257.58 1034.6 257.381 1033.81 257.381ZM1047.04 262.558C1047.04 263.478 1046.96 264.339 1046.82 265.142C1046.67 265.938 1046.44 266.642 1046.12 267.251C1045.81 267.854 1045.4 268.326 1044.89 268.666C1044.38 269.006 1043.76 269.176 1043.04 269.176C1042.3 269.176 1041.67 269.003 1041.16 268.657C1040.64 268.306 1040.22 267.825 1039.91 267.216C1039.6 266.606 1039.37 265.9 1039.22 265.098C1039.08 264.295 1039.01 263.442 1039.01 262.54C1039.01 261.075 1039.16 259.856 1039.46 258.884C1039.76 257.911 1040.21 257.182 1040.81 256.695C1041.41 256.209 1042.15 255.966 1043.04 255.966C1044 255.966 1044.77 256.259 1045.36 256.845C1045.94 257.425 1046.37 258.213 1046.63 259.209C1046.9 260.205 1047.04 261.321 1047.04 262.558ZM1040.46 262.558C1040.46 263.724 1040.56 264.705 1040.75 265.502C1040.95 266.293 1041.24 266.891 1041.62 267.295C1042 267.699 1042.47 267.901 1043.02 267.901C1043.58 267.901 1044.05 267.705 1044.42 267.312C1044.8 266.914 1045.08 266.319 1045.27 265.528C1045.46 264.731 1045.56 263.741 1045.56 262.558C1045.56 260.794 1045.35 259.467 1044.93 258.576C1044.5 257.686 1043.87 257.24 1043.04 257.24C1042.46 257.24 1041.98 257.442 1041.6 257.847C1041.22 258.245 1040.94 258.84 1040.74 259.631C1040.55 260.416 1040.46 261.392 1040.46 262.558ZM1051.46 256.15C1052.32 256.15 1053.04 256.282 1053.6 256.546C1054.16 256.804 1054.58 257.199 1054.86 257.732C1055.13 258.26 1055.27 258.928 1055.27 259.736C1055.27 260.311 1055.2 260.823 1055.06 261.274C1054.92 261.726 1054.7 262.112 1054.41 262.435C1054.12 262.757 1053.74 263.021 1053.27 263.226L1055.88 269H1054.32L1052 263.577H1050.66V269H1049.26V256.15H1051.46ZM1051.46 257.416H1050.66V262.399H1051.66C1052.36 262.399 1052.89 262.186 1053.27 261.758C1053.65 261.324 1053.84 260.674 1053.84 259.807C1053.84 258.963 1053.65 258.354 1053.27 257.979C1052.89 257.604 1052.29 257.416 1051.46 257.416ZM1060.19 269H1058.79V257.416H1056.29V256.15H1062.71V257.416H1060.19V269ZM1069.37 269L1068.4 264.869H1065.35L1064.38 269H1062.89L1065.99 256.15H1067.69L1070.85 269H1069.37ZM1068.14 263.577L1067.15 259.218C1067.11 259.001 1067.07 258.79 1067.03 258.585C1067 258.374 1066.96 258.172 1066.92 257.979C1066.9 257.779 1066.87 257.586 1066.84 257.398C1066.82 257.586 1066.8 257.779 1066.77 257.979C1066.74 258.178 1066.7 258.38 1066.66 258.585C1066.62 258.784 1066.58 258.989 1066.53 259.2L1065.57 263.577H1068.14ZM1079.66 269H1077.96L1073.48 258.365H1073.41C1073.43 258.676 1073.45 258.978 1073.46 259.271C1073.48 259.558 1073.49 259.836 1073.5 260.105C1073.5 260.375 1073.51 260.639 1073.51 260.896V269H1072.18V256.15H1073.87L1078.36 266.627H1078.41C1078.39 266.281 1078.38 265.956 1078.36 265.651C1078.35 265.347 1078.34 265.062 1078.33 264.799C1078.33 264.529 1078.32 264.283 1078.32 264.061V256.15H1079.66V269ZM1085.03 269H1083.63V257.416H1081.13V256.15H1087.54V257.416H1085.03V269ZM1094.11 269H1089.06V256.15H1094.11V257.398H1090.45V261.661H1093.89V262.918H1090.45V267.726H1094.11V269ZM1101.62 265.493C1101.62 266.22 1101.47 266.861 1101.19 267.418C1100.92 267.969 1100.53 268.399 1100.02 268.71C1099.53 269.021 1098.94 269.176 1098.26 269.176C1097.92 269.176 1097.6 269.155 1097.29 269.114C1096.98 269.079 1096.68 269.021 1096.4 268.938C1096.13 268.856 1095.86 268.754 1095.61 268.631V267.181C1096.01 267.403 1096.44 267.573 1096.9 267.69C1097.37 267.808 1097.81 267.866 1098.21 267.866C1098.63 267.866 1098.99 267.767 1099.29 267.567C1099.58 267.362 1099.8 267.09 1099.95 266.75C1100.11 266.41 1100.19 266.035 1100.19 265.625C1100.19 265.191 1100.13 264.828 1100 264.535C1099.87 264.236 1099.66 263.967 1099.37 263.727C1099.07 263.486 1098.68 263.237 1098.18 262.979C1097.8 262.774 1097.46 262.563 1097.16 262.347C1096.85 262.13 1096.59 261.887 1096.38 261.617C1096.16 261.342 1095.99 261.02 1095.88 260.65C1095.76 260.281 1095.7 259.842 1095.7 259.332C1095.69 258.658 1095.82 258.069 1096.1 257.565C1096.38 257.056 1096.76 256.66 1097.26 256.379C1097.75 256.098 1098.32 255.96 1098.96 255.966C1099.45 255.966 1099.91 256.027 1100.35 256.15C1100.79 256.268 1101.18 256.411 1101.5 256.581L1101.04 257.864C1100.69 257.671 1100.33 257.527 1099.98 257.434C1099.63 257.334 1099.3 257.284 1098.99 257.284C1098.59 257.284 1098.26 257.369 1097.98 257.539C1097.7 257.709 1097.49 257.943 1097.33 258.242C1097.19 258.535 1097.12 258.878 1097.12 259.271C1097.12 259.722 1097.18 260.094 1097.31 260.387C1097.44 260.68 1097.66 260.94 1097.95 261.169C1098.25 261.397 1098.64 261.644 1099.13 261.907C1099.68 262.2 1100.15 262.517 1100.52 262.856C1100.89 263.19 1101.16 263.571 1101.34 263.999C1101.52 264.427 1101.62 264.925 1101.62 265.493ZM1113.96 262.417C1113.96 263.864 1113.8 265.077 1113.46 266.056C1113.13 267.028 1112.63 267.764 1111.97 268.262C1111.31 268.754 1110.49 269 1109.51 269H1106.99V256.15H1109.61C1110.57 256.15 1111.37 256.388 1112.01 256.862C1112.66 257.337 1113.14 258.04 1113.47 258.972C1113.8 259.903 1113.96 261.052 1113.96 262.417ZM1112.5 262.487C1112.5 261.368 1112.4 260.431 1112.18 259.675C1111.96 258.919 1111.64 258.351 1111.2 257.97C1110.77 257.589 1110.22 257.398 1109.56 257.398H1108.38V267.743H1109.46C1110.52 267.743 1111.29 267.304 1111.78 266.425C1112.26 265.54 1112.5 264.228 1112.5 262.487ZM1121.25 269H1116.2V256.15H1121.25V257.398H1117.59V261.661H1121.03V262.918H1117.59V267.726H1121.25V269ZM1129.47 269H1128.07V257.416H1125.57V256.15H1131.98V257.416H1129.47V269ZM1140.28 256.15V264.983C1140.28 265.962 1140.15 266.762 1139.88 267.383C1139.62 267.998 1139.23 268.452 1138.72 268.745C1138.22 269.032 1137.59 269.176 1136.85 269.176C1135.72 269.176 1134.86 268.836 1134.27 268.156C1133.67 267.477 1133.38 266.422 1133.38 264.992V256.15H1134.78V265.001C1134.78 266.032 1134.96 266.773 1135.31 267.225C1135.68 267.676 1136.19 267.901 1136.85 267.901C1137.29 267.901 1137.66 267.805 1137.96 267.611C1138.26 267.418 1138.48 267.107 1138.63 266.68C1138.79 266.252 1138.86 265.687 1138.86 264.983V256.15H1140.28ZM1153.03 269H1151.63V262.918H1147.56V269H1146.17V256.15H1147.56V261.644H1151.63V256.15H1153.03V269ZM1155.68 269V256.15H1157.07V269H1155.68ZM1165.07 265.493C1165.07 266.22 1164.93 266.861 1164.65 267.418C1164.38 267.969 1163.99 268.399 1163.48 268.71C1162.98 269.021 1162.39 269.176 1161.71 269.176C1161.38 269.176 1161.06 269.155 1160.75 269.114C1160.44 269.079 1160.14 269.021 1159.86 268.938C1159.58 268.856 1159.32 268.754 1159.07 268.631V267.181C1159.47 267.403 1159.9 267.573 1160.36 267.69C1160.83 267.808 1161.26 267.866 1161.66 267.866C1162.09 267.866 1162.45 267.767 1162.74 267.567C1163.04 267.362 1163.26 267.09 1163.41 266.75C1163.57 266.41 1163.65 266.035 1163.65 265.625C1163.65 265.191 1163.58 264.828 1163.46 264.535C1163.33 264.236 1163.12 263.967 1162.82 263.727C1162.53 263.486 1162.13 263.237 1161.64 262.979C1161.26 262.774 1160.92 262.563 1160.62 262.347C1160.31 262.13 1160.05 261.887 1159.83 261.617C1159.62 261.342 1159.45 261.02 1159.33 260.65C1159.22 260.281 1159.16 259.842 1159.16 259.332C1159.15 258.658 1159.28 258.069 1159.55 257.565C1159.83 257.056 1160.22 256.66 1160.71 256.379C1161.21 256.098 1161.78 255.96 1162.42 255.966C1162.9 255.966 1163.37 256.027 1163.81 256.15C1164.25 256.268 1164.64 256.411 1164.96 256.581L1164.5 257.864C1164.14 257.671 1163.79 257.527 1163.44 257.434C1163.09 257.334 1162.76 257.284 1162.44 257.284C1162.05 257.284 1161.71 257.369 1161.43 257.539C1161.16 257.709 1160.94 257.943 1160.79 258.242C1160.65 258.535 1160.57 258.878 1160.57 259.271C1160.57 259.722 1160.64 260.094 1160.77 260.387C1160.9 260.68 1161.11 260.94 1161.41 261.169C1161.71 261.397 1162.1 261.644 1162.58 261.907C1163.14 262.2 1163.6 262.517 1163.97 262.856C1164.34 263.19 1164.62 263.571 1164.8 263.999C1164.98 264.427 1165.07 264.925 1165.07 265.493ZM1169.84 269H1168.45V257.416H1165.94V256.15H1172.36V257.416H1169.84V269ZM1181.47 262.558C1181.47 263.478 1181.4 264.339 1181.25 265.142C1181.11 265.938 1180.88 266.642 1180.56 267.251C1180.25 267.854 1179.84 268.326 1179.33 268.666C1178.82 269.006 1178.2 269.176 1177.47 269.176C1176.74 269.176 1176.11 269.003 1175.59 268.657C1175.08 268.306 1174.66 267.825 1174.34 267.216C1174.03 266.606 1173.81 265.9 1173.66 265.098C1173.52 264.295 1173.45 263.442 1173.45 262.54C1173.45 261.075 1173.6 259.856 1173.9 258.884C1174.2 257.911 1174.65 257.182 1175.25 256.695C1175.85 256.209 1176.59 255.966 1177.47 255.966C1178.43 255.966 1179.21 256.259 1179.79 256.845C1180.38 257.425 1180.8 258.213 1181.07 259.209C1181.34 260.205 1181.47 261.321 1181.47 262.558ZM1174.9 262.558C1174.9 263.724 1175 264.705 1175.19 265.502C1175.39 266.293 1175.68 266.891 1176.06 267.295C1176.44 267.699 1176.91 267.901 1177.46 267.901C1178.02 267.901 1178.49 267.705 1178.86 267.312C1179.24 266.914 1179.52 266.319 1179.71 265.528C1179.9 264.731 1180 263.741 1180 262.558C1180 260.794 1179.79 259.467 1179.36 258.576C1178.94 257.686 1178.31 257.24 1177.47 257.24C1176.9 257.24 1176.42 257.442 1176.04 257.847C1175.66 258.245 1175.37 258.84 1175.18 259.631C1174.99 260.416 1174.9 261.392 1174.9 262.558ZM1185.89 256.15C1186.76 256.15 1187.48 256.282 1188.04 256.546C1188.6 256.804 1189.02 257.199 1189.29 257.732C1189.57 258.26 1189.71 258.928 1189.71 259.736C1189.71 260.311 1189.64 260.823 1189.5 261.274C1189.36 261.726 1189.14 262.112 1188.85 262.435C1188.55 262.757 1188.17 263.021 1187.7 263.226L1190.31 269H1188.76L1186.44 263.577H1185.09V269H1183.7V256.15H1185.89ZM1185.9 257.416H1185.09V262.399H1186.1C1186.79 262.399 1187.33 262.186 1187.7 261.758C1188.08 261.324 1188.28 260.674 1188.28 259.807C1188.28 258.963 1188.08 258.354 1187.7 257.979C1187.32 257.604 1186.72 257.416 1185.9 257.416ZM1191.89 269V256.15H1193.29V269H1191.89ZM1201.06 269L1200.1 264.869H1197.05L1196.08 269H1194.59L1197.69 256.15H1199.38L1202.55 269H1201.06ZM1199.83 263.577L1198.85 259.218C1198.81 259.001 1198.77 258.79 1198.73 258.585C1198.69 258.374 1198.66 258.172 1198.62 257.979C1198.59 257.779 1198.56 257.586 1198.53 257.398C1198.51 257.586 1198.49 257.779 1198.46 257.979C1198.43 258.178 1198.4 258.38 1198.36 258.585C1198.32 258.784 1198.27 258.989 1198.22 259.2L1197.27 263.577H1199.83ZM1203.88 269V256.15H1205.27V267.726H1208.86V269H1203.88ZM1218.26 269L1215.14 258.084H1215.07C1215.1 258.477 1215.11 258.831 1215.13 259.147C1215.14 259.458 1215.16 259.728 1215.16 259.956C1215.17 260.185 1215.17 260.372 1215.17 260.519V269H1213.84V256.15H1215.82L1218.89 266.838H1218.94L1222.02 256.15H1224.02V269H1222.65V260.554C1222.65 260.396 1222.65 260.199 1222.66 259.965C1222.66 259.73 1222.67 259.458 1222.68 259.147C1222.7 258.831 1222.72 258.477 1222.73 258.084H1222.67L1219.55 269H1218.26ZM1231.69 269H1226.64V256.15H1231.69V257.398H1228.04V261.661H1231.47V262.918H1228.04V267.726H1231.69V269ZM1240.81 262.417C1240.81 263.864 1240.64 265.077 1240.31 266.056C1239.97 267.028 1239.47 267.764 1238.81 268.262C1238.16 268.754 1237.34 269 1236.35 269H1233.83V256.15H1236.46C1237.41 256.15 1238.21 256.388 1238.86 256.862C1239.5 257.337 1239.99 258.04 1240.32 258.972C1240.64 259.903 1240.81 261.052 1240.81 262.417ZM1239.35 262.487C1239.35 261.368 1239.24 260.431 1239.02 259.675C1238.81 258.919 1238.48 258.351 1238.05 257.97C1237.61 257.589 1237.07 257.398 1236.4 257.398H1235.23V267.743H1236.3C1237.36 267.743 1238.13 267.304 1238.62 266.425C1239.11 265.54 1239.35 264.228 1239.35 262.487ZM1243.04 269V256.15H1244.44V269H1243.04ZM1250.98 257.223C1250.47 257.223 1250.03 257.366 1249.66 257.653C1249.29 257.94 1249 258.336 1248.76 258.84C1248.53 259.338 1248.36 259.909 1248.25 260.554C1248.15 261.192 1248.09 261.866 1248.09 262.575C1248.09 263.677 1248.21 264.626 1248.45 265.423C1248.7 266.22 1249.05 266.835 1249.49 267.269C1249.94 267.696 1250.46 267.91 1251.06 267.91C1251.43 267.91 1251.77 267.863 1252.09 267.77C1252.42 267.676 1252.71 267.562 1252.98 267.427V268.692C1252.7 268.856 1252.39 268.977 1252.04 269.053C1251.69 269.135 1251.32 269.176 1250.91 269.176C1250.03 269.176 1249.28 268.912 1248.64 268.385C1248 267.857 1247.51 267.102 1247.16 266.117C1246.82 265.127 1246.64 263.94 1246.64 262.558C1246.64 261.649 1246.73 260.797 1246.9 260C1247.07 259.203 1247.34 258.5 1247.69 257.891C1248.05 257.281 1248.5 256.807 1249.03 256.467C1249.57 256.121 1250.21 255.948 1250.93 255.948C1251.35 255.948 1251.76 256.004 1252.15 256.115C1252.54 256.221 1252.91 256.376 1253.27 256.581L1252.77 257.768C1252.5 257.598 1252.22 257.466 1251.92 257.372C1251.62 257.272 1251.3 257.223 1250.98 257.223ZM1262.63 262.558C1262.63 263.478 1262.56 264.339 1262.41 265.142C1262.26 265.938 1262.03 266.642 1261.72 267.251C1261.41 267.854 1261 268.326 1260.49 268.666C1259.98 269.006 1259.36 269.176 1258.63 269.176C1257.89 269.176 1257.27 269.003 1256.75 268.657C1256.24 268.306 1255.82 267.825 1255.5 267.216C1255.19 266.606 1254.96 265.9 1254.82 265.098C1254.68 264.295 1254.61 263.442 1254.61 262.54C1254.61 261.075 1254.76 259.856 1255.05 258.884C1255.36 257.911 1255.81 257.182 1256.41 256.695C1257.01 256.209 1257.75 255.966 1258.63 255.966C1259.59 255.966 1260.37 256.259 1260.95 256.845C1261.54 257.425 1261.96 258.213 1262.23 259.209C1262.5 260.205 1262.63 261.321 1262.63 262.558ZM1256.06 262.558C1256.06 263.724 1256.15 264.705 1256.35 265.502C1256.55 266.293 1256.84 266.891 1257.22 267.295C1257.6 267.699 1258.06 267.901 1258.61 267.901C1259.18 267.901 1259.65 267.705 1260.02 267.312C1260.4 266.914 1260.68 266.319 1260.86 265.528C1261.06 264.731 1261.15 263.741 1261.15 262.558C1261.15 260.794 1260.94 259.467 1260.52 258.576C1260.1 257.686 1259.47 257.24 1258.63 257.24C1258.06 257.24 1257.58 257.442 1257.2 257.847C1256.82 258.245 1256.53 258.84 1256.34 259.631C1256.15 260.416 1256.06 261.392 1256.06 262.558Z" fill="#CBCBCB"/>
<rect x="791.5" y="119.5" width="706" height="41.6052" rx="7.43673" fill="white" stroke="#BBBBBB"/>
<defs>
<filter id="filter0_d_6_558" x="0.499756" y="0.599756" width="1556" height="448" filterUnits="userSpaceOnUse" color-interpolation-filters="sRGB">
<feFlood flood-opacity="0" result="BackgroundImageFix"/>
<feColorMatrix in="SourceAlpha" type="matrix" values="0 0 0 0 0 0 0 0 0 0 0 0 0 0 0 0 0 0 127 0" result="hardAlpha"/>
<feOffset dx="1.5" dy="2.6"/>
<feGaussianBlur stdDeviation="5"/>
<feColorMatrix type="matrix" values="0 0 0 0 0.466667 0 0 0 0 0.466667 0 0 0 0 0.466667 0 0 0 0.1 0"/>
<feBlend mode="normal" in2="BackgroundImageFix" result="effect1_dropShadow_6_558"/>
<feBlend mode="normal" in="SourceGraphic" in2="effect1_dropShadow_6_558" result="shape"/>
</filter>
</defs>
</svg>
