<svg width="319" height="59" viewBox="0 0 319 59" fill="none" xmlns="http://www.w3.org/2000/svg">
<path d="M132.806 38.8154L129.024 26.4941H128.928C128.942 26.7878 128.964 27.2318 128.992 27.8262C129.028 28.4134 129.06 29.04 129.089 29.7061C129.118 30.3721 129.132 30.9736 129.132 31.5107V38.8154H126.156V23.1104H130.689L134.406 35.1201H134.471L138.413 23.1104H142.946V38.8154H139.842V31.3818C139.842 30.8877 139.849 30.3184 139.863 29.6738C139.885 29.0293 139.91 28.417 139.938 27.8369C139.967 27.2497 139.989 26.8092 140.003 26.5156H139.906L135.856 38.8154H132.806ZM156.524 38.8154L155.386 35.0771H149.66L148.521 38.8154H144.934L150.477 23.0459H154.548L160.112 38.8154H156.524ZM154.591 32.2842L153.452 28.6318C153.381 28.3883 153.284 28.0768 153.162 27.6973C153.048 27.3105 152.929 26.9202 152.808 26.5264C152.693 26.1253 152.6 25.778 152.528 25.4844C152.457 25.778 152.356 26.1432 152.228 26.5801C152.106 27.0098 151.988 27.418 151.873 27.8047C151.758 28.1914 151.676 28.4671 151.626 28.6318L150.498 32.2842H154.591ZM166.676 23.1104C168.101 23.1104 169.275 23.2822 170.199 23.626C171.13 23.9697 171.821 24.4889 172.272 25.1836C172.724 25.8783 172.949 26.7555 172.949 27.8154C172.949 28.5316 172.813 29.1582 172.541 29.6953C172.269 30.2324 171.911 30.6872 171.467 31.0596C171.023 31.432 170.543 31.7363 170.027 31.9727L174.646 38.8154H170.951L167.202 32.7891H165.43V38.8154H162.1V23.1104H166.676ZM166.439 25.8389H165.43V30.082H166.504C167.607 30.082 168.395 29.8994 168.867 29.5342C169.347 29.1618 169.587 28.6175 169.587 27.9014C169.587 27.1566 169.329 26.6266 168.813 26.3115C168.305 25.9964 167.514 25.8389 166.439 25.8389ZM176.623 38.8154V23.1104H179.953V38.8154H176.623ZM193.521 38.8154L192.382 35.0771H186.656L185.518 38.8154H181.93L187.473 23.0459H191.544L197.108 38.8154H193.521ZM191.587 32.2842L190.448 28.6318C190.377 28.3883 190.28 28.0768 190.158 27.6973C190.044 27.3105 189.925 26.9202 189.804 26.5264C189.689 26.1253 189.596 25.778 189.524 25.4844C189.453 25.778 189.353 26.1432 189.224 26.5801C189.102 27.0098 188.984 27.418 188.869 27.8047C188.755 28.1914 188.672 28.4671 188.622 28.6318L187.494 32.2842H191.587ZM210.772 29.9961H217.003V38.1387C216.179 38.4108 215.324 38.6292 214.436 38.7939C213.548 38.9515 212.541 39.0303 211.417 39.0303C209.856 39.0303 208.531 38.7223 207.442 38.1064C206.354 37.4906 205.527 36.5811 204.961 35.3779C204.395 34.1748 204.112 32.696 204.112 30.9414C204.112 29.2943 204.427 27.8691 205.058 26.666C205.695 25.4629 206.622 24.5319 207.84 23.873C209.064 23.2142 210.558 22.8848 212.319 22.8848C213.15 22.8848 213.97 22.9743 214.779 23.1533C215.589 23.3324 216.323 23.5651 216.981 23.8516L215.875 26.5156C215.395 26.2721 214.847 26.068 214.231 25.9033C213.616 25.7386 212.971 25.6562 212.298 25.6562C211.331 25.6562 210.49 25.8783 209.773 26.3223C209.064 26.7663 208.513 27.3893 208.119 28.1914C207.732 28.9863 207.539 29.9245 207.539 31.0059C207.539 32.0299 207.679 32.9395 207.958 33.7344C208.237 34.5221 208.678 35.1416 209.279 35.5928C209.881 36.0368 210.665 36.2588 211.632 36.2588C212.104 36.2588 212.502 36.2373 212.824 36.1943C213.154 36.1442 213.462 36.0941 213.748 36.0439V32.7676H210.772V29.9961ZM235.007 30.9414C235.007 32.1517 234.856 33.2546 234.556 34.25C234.255 35.2383 233.797 36.0905 233.181 36.8066C232.572 37.5228 231.799 38.0742 230.86 38.4609C229.922 38.8405 228.812 39.0303 227.53 39.0303C226.248 39.0303 225.138 38.8405 224.2 38.4609C223.262 38.0742 222.485 37.5228 221.869 36.8066C221.26 36.0905 220.806 35.2347 220.505 34.2393C220.204 33.2438 220.054 32.1374 220.054 30.9199C220.054 29.2943 220.319 27.8799 220.849 26.6768C221.386 25.4665 222.209 24.5283 223.319 23.8623C224.429 23.1963 225.84 22.8633 227.552 22.8633C229.256 22.8633 230.656 23.1963 231.752 23.8623C232.855 24.5283 233.671 25.4665 234.201 26.6768C234.738 27.887 235.007 29.3086 235.007 30.9414ZM223.545 30.9414C223.545 32.0371 223.681 32.9824 223.953 33.7773C224.232 34.5651 224.666 35.1738 225.253 35.6035C225.84 36.026 226.599 36.2373 227.53 36.2373C228.476 36.2373 229.242 36.026 229.829 35.6035C230.416 35.1738 230.842 34.5651 231.107 33.7773C231.38 32.9824 231.516 32.0371 231.516 30.9414C231.516 29.2943 231.208 27.998 230.592 27.0527C229.976 26.1074 228.963 25.6348 227.552 25.6348C226.614 25.6348 225.847 25.8496 225.253 26.2793C224.666 26.7018 224.232 27.3105 223.953 28.1055C223.681 28.8932 223.545 29.8385 223.545 30.9414ZM252.194 38.8154H247.962L241.13 26.9346H241.033C241.062 27.4287 241.087 27.9264 241.108 28.4277C241.13 28.929 241.151 29.4303 241.173 29.9316C241.194 30.4258 241.216 30.9235 241.237 31.4248V38.8154H238.262V23.1104H242.462L249.283 34.873H249.358C249.344 34.3861 249.326 33.9027 249.305 33.4229C249.283 32.943 249.262 32.4632 249.24 31.9834C249.226 31.5036 249.212 31.0238 249.197 30.5439V23.1104H252.194V38.8154ZM266.396 38.8154H254.708V36.6562L262.238 25.8604H254.912V23.1104H266.191V25.2588L258.672 36.0654H266.396V38.8154ZM278.513 38.8154L277.374 35.0771H271.648L270.51 38.8154H266.922L272.465 23.0459H276.536L282.101 38.8154H278.513ZM276.579 32.2842L275.44 28.6318C275.369 28.3883 275.272 28.0768 275.15 27.6973C275.036 27.3105 274.918 26.9202 274.796 26.5264C274.681 26.1253 274.588 25.778 274.517 25.4844C274.445 25.778 274.345 26.1432 274.216 26.5801C274.094 27.0098 273.976 27.418 273.861 27.8047C273.747 28.1914 273.664 28.4671 273.614 28.6318L272.486 32.2842H276.579ZM284.088 38.8154V23.1104H287.418V36.0654H293.788V38.8154H284.088ZM305.572 38.8154H296.527V23.1104H305.572V25.8389H299.857V29.2871H305.175V32.0156H299.857V36.0654H305.572V38.8154ZM318.13 34.4541C318.13 35.3851 317.904 36.1943 317.453 36.8818C317.002 37.5693 316.343 38.0993 315.477 38.4717C314.617 38.8441 313.572 39.0303 312.34 39.0303C311.796 39.0303 311.262 38.9945 310.739 38.9229C310.224 38.8512 309.726 38.7474 309.246 38.6113C308.773 38.4681 308.322 38.2926 307.893 38.085V34.9912C308.637 35.3206 309.411 35.6178 310.213 35.8828C311.015 36.1478 311.81 36.2803 312.598 36.2803C313.142 36.2803 313.579 36.2087 313.908 36.0654C314.245 35.9222 314.488 35.7253 314.639 35.4746C314.789 35.224 314.864 34.9375 314.864 34.6152C314.864 34.2214 314.732 33.8848 314.467 33.6055C314.202 33.3262 313.837 33.0648 313.371 32.8213C312.913 32.5778 312.394 32.3164 311.813 32.0371C311.448 31.8652 311.051 31.6576 310.621 31.4141C310.191 31.1634 309.783 30.859 309.396 30.501C309.01 30.1429 308.691 29.7096 308.44 29.2012C308.197 28.6855 308.075 28.0697 308.075 27.3535C308.075 26.4154 308.29 25.6133 308.72 24.9473C309.149 24.2812 309.762 23.7728 310.557 23.4219C311.359 23.0638 312.304 22.8848 313.393 22.8848C314.209 22.8848 314.986 22.9814 315.724 23.1748C316.468 23.361 317.245 23.6331 318.055 23.9912L316.98 26.5801C316.257 26.2865 315.609 26.0609 315.036 25.9033C314.463 25.7386 313.88 25.6562 313.285 25.6562C312.87 25.6562 312.515 25.7243 312.222 25.8604C311.928 25.9893 311.706 26.1755 311.556 26.4189C311.405 26.6553 311.33 26.931 311.33 27.2461C311.33 27.6185 311.438 27.9336 311.652 28.1914C311.874 28.4421 312.204 28.6855 312.641 28.9219C313.085 29.1582 313.636 29.4339 314.295 29.749C315.097 30.1286 315.781 30.526 316.347 30.9414C316.92 31.3496 317.36 31.833 317.668 32.3916C317.976 32.943 318.13 33.6305 318.13 34.4541Z" fill="#9041F0"/>
<path opacity="0.4" d="M80.4077 58.8154C96.649 58.8154 109.815 45.6493 109.815 29.4077C109.815 13.1663 96.649 0 80.4077 0C64.1663 0 51 13.1663 51 29.4077C51 45.6493 64.1663 58.8154 80.4077 58.8154Z" fill="#9041F0"/>
<path d="M80.4078 14.4978C74.3204 14.4978 69.3799 19.4383 69.3799 25.5256C69.3799 31.4953 74.0557 36.3476 80.2607 36.5241H80.5254H80.7313H80.7901C86.7304 36.3182 91.4063 31.4953 91.4357 25.5256C91.4357 19.4383 86.4952 14.4978 80.4078 14.4978Z" fill="#9041F0"/>
<path d="M100.349 51.0223C95.114 55.8452 88.1149 58.8154 80.4101 58.8154C72.7053 58.8154 65.7063 55.8452 60.4717 51.0223C61.1775 48.3462 63.089 45.9054 65.8827 44.0233C73.911 38.6711 86.968 38.6711 94.9375 44.0233C97.7607 45.9054 99.6428 48.3462 100.349 51.0223Z" fill="#9041F0"/>
</svg>
