<svg width="268" height="62" viewBox="0 0 268 62" fill="none" xmlns="http://www.w3.org/2000/svg">
<g filter="url(#filter0_d_14_532)">
<path d="M4 20C4 10.6112 11.6112 3 21 3H246.768C256.157 3 263.768 10.6112 263.768 20V36.0374C263.768 45.4262 256.157 53.0374 246.768 53.0374H21C11.6111 53.0374 4 45.4262 4 36.0374V20Z" fill="#9041F0"/>
<path d="M45.4754 24.4871C46.673 24.4871 47.5469 24.7325 48.097 25.2234C48.6471 25.7143 48.9222 26.4019 48.9222 27.2864C48.9222 27.6884 48.8587 28.0714 48.7318 28.4353C48.609 28.795 48.4059 29.1145 48.1224 29.3938C47.8389 29.6689 47.4644 29.8868 46.9989 30.0476C46.5376 30.2084 45.9684 30.2888 45.2913 30.2888H44.3011V33.7673H42.7777V24.4871H45.4754ZM45.3739 25.7502H44.3011V29.0193H45.1326C45.6108 29.0193 46.0171 28.9643 46.3514 28.8542C46.6857 28.74 46.9396 28.5601 47.1131 28.3147C47.2866 28.0693 47.3734 27.7455 47.3734 27.3435C47.3734 26.8061 47.2104 26.4062 46.8846 26.1438C46.563 25.8814 46.0594 25.7502 45.3739 25.7502ZM53.3846 24.4871C54.1844 24.4871 54.8446 24.5844 55.3651 24.7791C55.8898 24.9737 56.2791 25.2699 56.533 25.6677C56.7912 26.0655 56.9202 26.5712 56.9202 27.1848C56.9202 27.6418 56.8356 28.0312 56.6663 28.3528C56.4971 28.6744 56.2749 28.941 55.9998 29.1526C55.7248 29.3642 55.4307 29.5334 55.1175 29.6604L57.7518 33.7673H56.0316L53.7908 30.0476H52.2991V33.7673H50.7757V24.4871H53.3846ZM53.283 25.7566H52.2991V28.7908H53.3529C54.0596 28.7908 54.5716 28.6596 54.889 28.3972C55.2106 28.1348 55.3714 27.7476 55.3714 27.2356C55.3714 26.6982 55.2 26.3173 54.8573 26.093C54.5187 25.8687 53.994 25.7566 53.283 25.7566ZM64.3343 33.7673H59.0784V24.4871H64.3343V25.7693H60.6019V28.2893H64.0994V29.5652H60.6019V32.4788H64.3343V33.7673ZM71.6976 31.241C71.6976 31.7911 71.5622 32.2651 71.2913 32.6628C71.0247 33.0606 70.6396 33.3653 70.1361 33.5769C69.6367 33.7885 69.04 33.8943 68.346 33.8943C68.0075 33.8943 67.6838 33.8752 67.3748 33.8372C67.0659 33.7991 66.7739 33.7441 66.4989 33.6721C66.228 33.5959 65.9805 33.505 65.7562 33.3992V31.9646C66.1328 32.1296 66.5539 32.2799 67.0194 32.4153C67.4849 32.5465 67.9588 32.6121 68.4412 32.6121C68.8348 32.6121 69.1606 32.5613 69.4188 32.4597C69.6811 32.3539 69.8758 32.2058 70.0028 32.0154C70.1297 31.8207 70.1932 31.5943 70.1932 31.3362C70.1932 31.0611 70.1191 30.8284 69.971 30.6379C69.8229 30.4475 69.5986 30.274 69.2982 30.1174C69.0019 29.9566 68.6296 29.7852 68.181 29.6033C67.8763 29.4806 67.5843 29.3409 67.305 29.1843C67.0299 29.0278 66.7845 28.8437 66.5687 28.6321C66.3529 28.4205 66.1815 28.1708 66.0545 27.8831C65.9318 27.5911 65.8704 27.2483 65.8704 26.8547C65.8704 26.33 65.9953 25.8814 66.2449 25.509C66.4989 25.1366 66.8543 24.851 67.3114 24.6521C67.7726 24.4532 68.3101 24.3538 68.9237 24.3538C69.4103 24.3538 69.8673 24.4045 70.2948 24.5061C70.7264 24.6077 71.1496 24.7515 71.5643 24.9377L71.0819 26.1628C70.701 26.0063 70.3307 25.8814 69.971 25.7883C69.6156 25.6952 69.2516 25.6487 68.8792 25.6487C68.5576 25.6487 68.2847 25.6973 68.0604 25.7947C67.8361 25.892 67.6647 26.0295 67.5462 26.2073C67.432 26.3808 67.3748 26.5881 67.3748 26.8293C67.3748 27.1002 67.4404 27.3287 67.5716 27.5149C67.707 27.6969 67.9144 27.864 68.1937 28.0164C68.4772 28.1687 68.8411 28.338 69.2855 28.5242C69.7975 28.7358 70.2313 28.9579 70.5867 29.1907C70.9464 29.4234 71.2215 29.7027 71.4119 30.0286C71.6024 30.3502 71.6976 30.7543 71.6976 31.241ZM73.4876 33.7673V24.4871H75.0111V33.7673H73.4876ZM85.7005 29.1145C85.7005 29.8297 85.6095 30.4814 85.4276 31.0696C85.2498 31.6536 84.9811 32.1571 84.6214 32.5803C84.2617 32.9993 83.811 33.323 83.2694 33.5515C82.7277 33.78 82.0929 33.8943 81.3651 33.8943C80.6245 33.8943 79.9813 33.78 79.4354 33.5515C78.8937 33.323 78.443 32.9972 78.0833 32.574C77.7279 32.1508 77.4613 31.6451 77.2835 31.0569C77.1058 30.4687 77.0169 29.817 77.0169 29.1018C77.0169 28.1454 77.1735 27.3118 77.4866 26.6008C77.804 25.8857 78.2843 25.3313 78.9276 24.9377C79.575 24.54 80.3918 24.3411 81.3778 24.3411C82.3426 24.3411 83.1445 24.5378 83.7835 24.9314C84.4225 25.325 84.9007 25.8793 85.2181 26.5945C85.5397 27.3054 85.7005 28.1454 85.7005 29.1145ZM78.6165 29.1145C78.6165 29.8297 78.7139 30.4496 78.9085 30.9744C79.1032 31.4949 79.4015 31.8969 79.8035 32.1804C80.2098 32.4597 80.7303 32.5994 81.3651 32.5994C82.0041 32.5994 82.5246 32.4597 82.9266 32.1804C83.3286 31.8969 83.6248 31.4949 83.8153 30.9744C84.0057 30.4496 84.1009 29.8297 84.1009 29.1145C84.1009 28.0269 83.883 27.1764 83.4471 26.5627C83.0155 25.9449 82.3257 25.636 81.3778 25.636C80.743 25.636 80.2204 25.7756 79.8099 26.0549C79.4036 26.3342 79.1032 26.7341 78.9085 27.2546C78.7139 27.7709 78.6165 28.3909 78.6165 29.1145ZM95.4378 33.7673H93.5653L89.0203 26.3596H88.9632C88.9801 26.6093 88.9949 26.8738 89.0076 27.1531C89.0246 27.4324 89.0373 27.7201 89.0457 28.0164C89.0584 28.3126 89.069 28.613 89.0775 28.9177V33.7673H87.6937V24.4871H89.5535L94.0921 31.844H94.1366C94.1281 31.6282 94.1175 31.3806 94.1048 31.1013C94.0921 30.822 94.0794 30.5343 94.0667 30.238C94.0583 29.9376 94.0519 29.6477 94.0477 29.3684V24.4871H95.4378V33.7673ZM103.626 33.7673L102.719 31.1902H99.1702L98.2625 33.7673H96.6566L100.11 24.449H101.798L105.245 33.7673H103.626ZM102.325 29.8826L101.443 27.3435C101.409 27.2335 101.36 27.079 101.297 26.8801C101.233 26.677 101.17 26.4718 101.106 26.2644C101.043 26.0528 100.99 25.8751 100.948 25.7312C100.905 25.9047 100.852 26.0994 100.789 26.3152C100.73 26.5268 100.67 26.7257 100.611 26.9119C100.556 27.0981 100.514 27.2419 100.484 27.3435L99.5955 29.8826H102.325ZM112.545 24.4871C113.742 24.4871 114.616 24.7325 115.166 25.2234C115.716 25.7143 115.992 26.4019 115.992 27.2864C115.992 27.6884 115.928 28.0714 115.801 28.4353C115.678 28.795 115.475 29.1145 115.192 29.3938C114.908 29.6689 114.534 29.8868 114.068 30.0476C113.607 30.2084 113.038 30.2888 112.361 30.2888H111.37V33.7673H109.847V24.4871H112.545ZM112.443 25.7502H111.37V29.0193H112.202C112.68 29.0193 113.086 28.9643 113.421 28.8542C113.755 28.74 114.009 28.5601 114.182 28.3147C114.356 28.0693 114.443 27.7455 114.443 27.3435C114.443 26.8061 114.28 26.4062 113.954 26.1438C113.632 25.8814 113.129 25.7502 112.443 25.7502ZM123.596 33.7673L122.688 31.1902H119.14L118.232 33.7673H116.626L120.079 24.449H121.768L125.215 33.7673H123.596ZM122.295 29.8826L121.412 27.3435C121.379 27.2335 121.33 27.079 121.266 26.8801C121.203 26.677 121.139 26.4718 121.076 26.2644C121.013 26.0528 120.96 25.8751 120.917 25.7312C120.875 25.9047 120.822 26.0994 120.759 26.3152C120.699 26.5268 120.64 26.7257 120.581 26.9119C120.526 27.0981 120.484 27.2419 120.454 27.3435L119.565 29.8826H122.295ZM129.049 24.4871C129.848 24.4871 130.509 24.5844 131.029 24.7791C131.554 24.9737 131.943 25.2699 132.197 25.6677C132.455 26.0655 132.584 26.5712 132.584 27.1848C132.584 27.6418 132.5 28.0312 132.33 28.3528C132.161 28.6744 131.939 28.941 131.664 29.1526C131.389 29.3642 131.095 29.5334 130.782 29.6604L133.416 33.7673H131.696L129.455 30.0476H127.963V33.7673H126.44V24.4871H129.049ZM128.947 25.7566H127.963V28.7908H129.017C129.724 28.7908 130.236 28.6596 130.553 28.3972C130.875 28.1348 131.035 27.7476 131.035 27.2356C131.035 26.6982 130.864 26.3173 130.521 26.093C130.183 25.8687 129.658 25.7566 128.947 25.7566ZM140.493 33.7673L139.586 31.1902H136.037L135.13 33.7673H133.524L136.977 24.449H138.665L142.112 33.7673H140.493ZM139.192 29.8826L138.31 27.3435C138.276 27.2335 138.227 27.079 138.164 26.8801C138.1 26.677 138.037 26.4718 137.973 26.2644C137.91 26.0528 137.857 25.8751 137.815 25.7312C137.772 25.9047 137.72 26.0994 137.656 26.3152C137.597 26.5268 137.538 26.7257 137.478 26.9119C137.423 27.0981 137.381 27.2419 137.351 27.3435L136.463 29.8826H139.192ZM150.669 25.6487C150.224 25.6487 149.827 25.7291 149.475 25.8899C149.128 26.0507 148.834 26.2834 148.593 26.5881C148.352 26.8886 148.168 27.2546 148.041 27.6863C147.914 28.1137 147.85 28.5961 147.85 29.1335C147.85 29.8529 147.952 30.4729 148.155 30.9934C148.358 31.5097 148.667 31.9075 149.082 32.1868C149.497 32.4618 150.021 32.5994 150.656 32.5994C151.05 32.5994 151.433 32.5613 151.805 32.4851C152.177 32.4089 152.562 32.3053 152.96 32.1741V33.469C152.584 33.6171 152.203 33.725 151.818 33.7927C151.433 33.8604 150.988 33.8943 150.485 33.8943C149.537 33.8943 148.75 33.6975 148.123 33.304C147.501 32.9104 147.036 32.356 146.727 31.6409C146.422 30.9257 146.27 30.0878 146.27 29.1272C146.27 28.4247 146.367 27.7815 146.562 27.1975C146.757 26.6135 147.04 26.1099 147.412 25.6868C147.785 25.2594 148.244 24.9314 148.79 24.7029C149.34 24.4701 149.968 24.3538 150.675 24.3538C151.141 24.3538 151.598 24.4067 152.046 24.5125C152.499 24.614 152.918 24.76 153.303 24.9504L152.77 26.2073C152.448 26.0549 152.112 25.9237 151.761 25.8137C151.409 25.7037 151.045 25.6487 150.669 25.6487ZM163.193 29.1145C163.193 29.8297 163.102 30.4814 162.92 31.0696C162.742 31.6536 162.473 32.1571 162.114 32.5803C161.754 32.9993 161.303 33.323 160.762 33.5515C160.22 33.78 159.585 33.8943 158.857 33.8943C158.117 33.8943 157.473 33.78 156.928 33.5515C156.386 33.323 155.935 32.9972 155.576 32.574C155.22 32.1508 154.953 31.6451 154.776 31.0569C154.598 30.4687 154.509 29.817 154.509 29.1018C154.509 28.1454 154.666 27.3118 154.979 26.6008C155.296 25.8857 155.777 25.3313 156.42 24.9377C157.067 24.54 157.884 24.3411 158.87 24.3411C159.835 24.3411 160.637 24.5378 161.276 24.9314C161.915 25.325 162.393 25.8793 162.71 26.5945C163.032 27.3054 163.193 28.1454 163.193 29.1145ZM156.109 29.1145C156.109 29.8297 156.206 30.4496 156.401 30.9744C156.595 31.4949 156.894 31.8969 157.296 32.1804C157.702 32.4597 158.222 32.5994 158.857 32.5994C159.496 32.5994 160.017 32.4597 160.419 32.1804C160.821 31.8969 161.117 31.4949 161.307 30.9744C161.498 30.4496 161.593 29.8297 161.593 29.1145C161.593 28.0269 161.375 27.1764 160.939 26.5627C160.508 25.9449 159.818 25.636 158.87 25.636C158.235 25.636 157.713 25.7756 157.302 26.0549C156.896 26.3342 156.595 26.7341 156.401 27.2546C156.206 27.7709 156.109 28.3909 156.109 29.1145ZM169.191 33.7673L166.519 26.0168H166.462C166.474 26.1903 166.489 26.4273 166.506 26.7278C166.523 27.0282 166.538 27.3499 166.551 27.6926C166.563 28.0354 166.57 28.3634 166.57 28.6765V33.7673H165.186V24.4871H167.325L169.896 31.8948H169.934L172.594 24.4871H174.726V33.7673H173.273V28.6003C173.273 28.3168 173.277 28.01 173.285 27.6799C173.298 27.3499 173.311 27.0367 173.324 26.7405C173.34 26.4443 173.353 26.2073 173.362 26.0295H173.311L170.537 33.7673H169.191ZM182.426 33.7673H177.17V24.4871H182.426V25.7693H178.694V28.2893H182.191V29.5652H178.694V32.4788H182.426V33.7673ZM192.176 33.7673H190.304L185.759 26.3596H185.701C185.718 26.6093 185.733 26.8738 185.746 27.1531C185.763 27.4324 185.776 27.7201 185.784 28.0164C185.797 28.3126 185.807 28.613 185.816 28.9177V33.7673H184.432V24.4871H186.292L190.83 31.844H190.875C190.866 31.6282 190.856 31.3806 190.843 31.1013C190.83 30.822 190.818 30.5343 190.805 30.238C190.797 29.9376 190.79 29.6477 190.786 29.3684V24.4871H192.176V33.7673ZM200.472 33.7673H193.801V32.72L198.524 25.782H193.947V24.4871H200.346V25.5281L195.623 32.4724H200.472V33.7673ZM207.855 33.7673L206.947 31.1902H203.399L202.491 33.7673H200.885L204.338 24.449H206.027L209.473 33.7673H207.855ZM206.554 29.8826L205.671 27.3435C205.637 27.2335 205.589 27.079 205.525 26.8801C205.462 26.677 205.398 26.4718 205.335 26.2644C205.271 26.0528 205.218 25.8751 205.176 25.7312C205.134 25.9047 205.081 26.0994 205.017 26.3152C204.958 26.5268 204.899 26.7257 204.84 26.9119C204.785 27.0981 204.742 27.2419 204.713 27.3435L203.824 29.8826H206.554ZM213.307 24.4871C214.107 24.4871 214.767 24.5844 215.288 24.7791C215.813 24.9737 216.202 25.2699 216.456 25.6677C216.714 26.0655 216.843 26.5712 216.843 27.1848C216.843 27.6418 216.758 28.0312 216.589 28.3528C216.42 28.6744 216.198 28.941 215.923 29.1526C215.648 29.3642 215.354 29.5334 215.04 29.6604L217.675 33.7673H215.954L213.714 30.0476H212.222V33.7673H210.699V24.4871H213.307ZM213.206 25.7566H212.222V28.7908H213.276C213.982 28.7908 214.494 28.6596 214.812 28.3972C215.133 28.1348 215.294 27.7476 215.294 27.2356C215.294 26.6982 215.123 26.3173 214.78 26.093C214.442 25.8687 213.917 25.7566 213.206 25.7566Z" fill="white"/>
</g>
<defs>
<filter id="filter0_d_14_532" x="0" y="3" width="267.768" height="58.0374" filterUnits="userSpaceOnUse" color-interpolation-filters="sRGB">
<feFlood flood-opacity="0" result="BackgroundImageFix"/>
<feColorMatrix in="SourceAlpha" type="matrix" values="0 0 0 0 0 0 0 0 0 0 0 0 0 0 0 0 0 0 127 0" result="hardAlpha"/>
<feOffset dy="4"/>
<feGaussianBlur stdDeviation="2"/>
<feComposite in2="hardAlpha" operator="out"/>
<feColorMatrix type="matrix" values="0 0 0 0 0 0 0 0 0 0 0 0 0 0 0 0 0 0 0.25 0"/>
<feBlend mode="normal" in2="BackgroundImageFix" result="effect1_dropShadow_14_532"/>
<feBlend mode="normal" in="SourceGraphic" in2="effect1_dropShadow_14_532" result="shape"/>
</filter>
</defs>
</svg>
