<svg width="25" height="29" viewBox="0 0 25 29" fill="none" xmlns="http://www.w3.org/2000/svg">
<path d="M24.0792 9.2189C22.6345 2.86199 17.0894 0 12.2185 0C12.2185 0 12.2185 0 12.2047 0C7.34757 0 1.78871 2.84823 0.343959 9.20514C-1.26591 16.3051 3.08211 22.318 7.01734 26.1019C8.47586 27.5053 10.3472 28.2071 12.2185 28.2071C14.0898 28.2071 15.9611 27.5053 17.4058 26.1019C21.3411 22.318 25.6891 16.3188 24.0792 9.2189ZM12.2185 16.1124C9.82433 16.1124 7.8842 14.1723 7.8842 11.7782C7.8842 9.38402 9.82433 7.44392 12.2185 7.44392C14.6127 7.44392 16.5528 9.38402 16.5528 11.7782C16.5528 14.1723 14.6127 16.1124 12.2185 16.1124Z" fill="#9041F0"/>
</svg>
